<?xml version="1.0" encoding="UTF-8" standalone="no"?>
<!-- Created with Inkscape (http://www.inkscape.org/) -->

<svg
   width="272.39996mm"
   height="272.39996mm"
   viewBox="0 0 272.39996 272.39996"
   version="1.1"
   id="svg1"
   xml:space="preserve"
   inkscape:version="1.3 (0e150ed6c4, 2023-07-21)"
   sodipodi:docname="icon_1_Improved.svg"
   inkscape:export-filename="..\CITS Project\ProfComp3200_38Project\Code\icon_1_Improved.png"
   inkscape:export-xdpi="96"
   inkscape:export-ydpi="96"
   xmlns:inkscape="http://www.inkscape.org/namespaces/inkscape"
   xmlns:sodipodi="http://sodipodi.sourceforge.net/DTD/sodipodi-0.dtd"
   xmlns="http://www.w3.org/2000/svg"
   xmlns:svg="http://www.w3.org/2000/svg"><sodipodi:namedview
     id="namedview1"
     pagecolor="#565656"
     bordercolor="#000000"
     borderopacity="0.25"
     inkscape:showpageshadow="2"
     inkscape:pageopacity="0.0"
     inkscape:pagecheckerboard="0"
     inkscape:deskcolor="#d1d1d1"
     inkscape:document-units="mm"
     inkscape:zoom="0.36945288"
     inkscape:cx="418.18594"
     inkscape:cy="783.59113"
     inkscape:window-width="1452"
     inkscape:window-height="997"
     inkscape:window-x="2484"
     inkscape:window-y="329"
     inkscape:window-maximized="0"
     inkscape:current-layer="layer2"
     inkscape:export-bgcolor="#ffffff00" /><defs
     id="defs1"><inkscape:path-effect
       effect="bspline"
       id="path-effect12975"
       is_visible="true"
       lpeversion="1.3"
       weight="33.333333"
       steps="2"
       helper_size="0"
       apply_no_weight="true"
       apply_with_weight="true"
       only_selected="false"
       uniform="false" /><inkscape:path-effect
       effect="bspline"
       id="path-effect12974"
       is_visible="true"
       lpeversion="1.3"
       weight="33.333333"
       steps="2"
       helper_size="0"
       apply_no_weight="true"
       apply_with_weight="true"
       only_selected="false"
       uniform="false" /><inkscape:path-effect
       effect="bspline"
       id="path-effect12972"
       is_visible="true"
       lpeversion="1.3"
       weight="33.333333"
       steps="2"
       helper_size="0"
       apply_no_weight="true"
       apply_with_weight="true"
       only_selected="false"
       uniform="false" /><inkscape:path-effect
       effect="bspline"
       id="path-effect12970"
       is_visible="true"
       lpeversion="1.3"
       weight="33.333333"
       steps="2"
       helper_size="0"
       apply_no_weight="true"
       apply_with_weight="true"
       only_selected="false"
       uniform="false" /><inkscape:path-effect
       effect="bspline"
       id="path-effect12968"
       is_visible="true"
       lpeversion="1.3"
       weight="33.333333"
       steps="2"
       helper_size="0"
       apply_no_weight="true"
       apply_with_weight="true"
       only_selected="false"
       uniform="false" /><inkscape:path-effect
       effect="bspline"
       id="path-effect12966"
       is_visible="true"
       lpeversion="1.3"
       weight="33.333333"
       steps="2"
       helper_size="0"
       apply_no_weight="true"
       apply_with_weight="true"
       only_selected="false"
       uniform="false" /><inkscape:path-effect
       effect="bspline"
       id="path-effect12964"
       is_visible="true"
       lpeversion="1.3"
       weight="33.333333"
       steps="2"
       helper_size="0"
       apply_no_weight="true"
       apply_with_weight="true"
       only_selected="false"
       uniform="false" /><inkscape:path-effect
       effect="bspline"
       id="path-effect12962"
       is_visible="true"
       lpeversion="1.3"
       weight="33.333333"
       steps="2"
       helper_size="0"
       apply_no_weight="true"
       apply_with_weight="true"
       only_selected="false"
       uniform="false" /><inkscape:path-effect
       effect="bspline"
       id="path-effect12954"
       is_visible="true"
       lpeversion="1.3"
       weight="33.333333"
       steps="2"
       helper_size="0"
       apply_no_weight="true"
       apply_with_weight="true"
       only_selected="false"
       uniform="false" /><inkscape:path-effect
       effect="bspline"
       id="path-effect12952"
       is_visible="true"
       lpeversion="1.3"
       weight="33.333333"
       steps="2"
       helper_size="0"
       apply_no_weight="true"
       apply_with_weight="true"
       only_selected="false"
       uniform="false" /><inkscape:path-effect
       effect="bspline"
       id="path-effect12950"
       is_visible="true"
       lpeversion="1.3"
       weight="33.333333"
       steps="2"
       helper_size="0"
       apply_no_weight="true"
       apply_with_weight="true"
       only_selected="false"
       uniform="false" /><inkscape:path-effect
       effect="bspline"
       id="path-effect12948"
       is_visible="true"
       lpeversion="1.3"
       weight="33.333333"
       steps="2"
       helper_size="0"
       apply_no_weight="true"
       apply_with_weight="true"
       only_selected="false"
       uniform="false" /><inkscape:path-effect
       effect="bspline"
       id="path-effect12946"
       is_visible="true"
       lpeversion="1.3"
       weight="33.333333"
       steps="2"
       helper_size="0"
       apply_no_weight="true"
       apply_with_weight="true"
       only_selected="false"
       uniform="false" /><inkscape:path-effect
       effect="bspline"
       id="path-effect12944"
       is_visible="true"
       lpeversion="1.3"
       weight="33.333333"
       steps="2"
       helper_size="0"
       apply_no_weight="true"
       apply_with_weight="true"
       only_selected="false"
       uniform="false" /><inkscape:path-effect
       effect="bspline"
       id="path-effect12942"
       is_visible="true"
       lpeversion="1.3"
       weight="33.333333"
       steps="2"
       helper_size="0"
       apply_no_weight="true"
       apply_with_weight="true"
       only_selected="false"
       uniform="false" /><inkscape:path-effect
       effect="bspline"
       id="path-effect12895"
       is_visible="true"
       lpeversion="1.3"
       weight="33.333333"
       steps="2"
       helper_size="0"
       apply_no_weight="true"
       apply_with_weight="true"
       only_selected="false"
       uniform="false" /><inkscape:path-effect
       effect="bspline"
       id="path-effect12894"
       is_visible="true"
       lpeversion="1.3"
       weight="33.333333"
       steps="2"
       helper_size="0"
       apply_no_weight="true"
       apply_with_weight="true"
       only_selected="false"
       uniform="false" /><inkscape:path-effect
       effect="bspline"
       id="path-effect12893"
       is_visible="true"
       lpeversion="1.3"
       weight="33.333333"
       steps="2"
       helper_size="0"
       apply_no_weight="true"
       apply_with_weight="true"
       only_selected="false"
       uniform="false" /><inkscape:path-effect
       effect="bspline"
       id="path-effect12891"
       is_visible="true"
       lpeversion="1.3"
       weight="33.333333"
       steps="2"
       helper_size="0"
       apply_no_weight="true"
       apply_with_weight="true"
       only_selected="false"
       uniform="false" /><inkscape:path-effect
       effect="bspline"
       id="path-effect12889"
       is_visible="true"
       lpeversion="1.3"
       weight="33.333333"
       steps="2"
       helper_size="0"
       apply_no_weight="true"
       apply_with_weight="true"
       only_selected="false"
       uniform="false" /><inkscape:path-effect
       effect="bspline"
       id="path-effect12887"
       is_visible="true"
       lpeversion="1.3"
       weight="33.333333"
       steps="2"
       helper_size="0"
       apply_no_weight="true"
       apply_with_weight="true"
       only_selected="false"
       uniform="false" /><inkscape:path-effect
       effect="bspline"
       id="path-effect12885"
       is_visible="true"
       lpeversion="1.3"
       weight="33.333333"
       steps="2"
       helper_size="0"
       apply_no_weight="true"
       apply_with_weight="true"
       only_selected="false"
       uniform="false" /><inkscape:path-effect
       effect="bspline"
       id="path-effect12883"
       is_visible="true"
       lpeversion="1.3"
       weight="33.333333"
       steps="2"
       helper_size="0"
       apply_no_weight="true"
       apply_with_weight="true"
       only_selected="false"
       uniform="false" /><inkscape:path-effect
       effect="bspline"
       id="path-effect12881"
       is_visible="true"
       lpeversion="1.3"
       weight="33.333333"
       steps="2"
       helper_size="0"
       apply_no_weight="true"
       apply_with_weight="true"
       only_selected="false"
       uniform="false" /><inkscape:path-effect
       effect="bspline"
       id="path-effect8"
       is_visible="true"
       lpeversion="1.3"
       weight="33.333333"
       steps="2"
       helper_size="0"
       apply_no_weight="true"
       apply_with_weight="true"
       only_selected="false"
       uniform="false" /></defs><g
     inkscape:label="Layer 1"
     inkscape:groupmode="layer"
     id="layer1"
     transform="translate(-440.59968,87.717008)"><rect
       style="fill:#ffffff;fill-opacity:1;stroke:#ffffff;stroke-width:9.44113;stroke-linecap:round;stroke-linejoin:round;stroke-dasharray:none;stroke-dashoffset:0;stroke-opacity:1;paint-order:markers fill stroke"
       id="rect12974"
       width="200.55887"
       height="200.55887"
       x="476.52023"
       y="-51.796455"
       ry="38.563122" /><g
       id="g12974"
       transform="translate(-1.2708333e-5)"
       style="fill:#000080;fill-opacity:1;stroke:#000080;stroke-opacity:1"><path
         style="fill:#ffffff;fill-opacity:1;stroke:none;stroke-width:10.776;stroke-linecap:round;stroke-linejoin:round;stroke-dasharray:none;stroke-dashoffset:0;stroke-opacity:1;paint-order:markers fill stroke"
         d="M 676.49222,7.3432298 692.08713,-4.3628231 680.75286,-15.990975 666.51498,-5.3035597 Z"
         id="path12975" /><path
         style="fill:#000080;fill-opacity:1;stroke:#000080;stroke-width:3;stroke-linecap:round;stroke-linejoin:bevel;stroke-dasharray:none;stroke-dashoffset:0;stroke-opacity:1;paint-order:stroke fill markers"
         d="m 659.07211,-61.399736 c 0,20.67775 0,41.355498 0,62.03324632"
         id="path12942"
         inkscape:path-effect="#path-effect12942"
         inkscape:original-d="m 659.07211,-61.399736 c 0,20.67775 0,41.355498 0,62.03324632"
         transform="matrix(0.92375063,-0.69339747,0.69339747,0.92375063,55.042888,448.3761)" /><path
         style="fill:#000080;fill-opacity:1;stroke:#000080;stroke-width:3;stroke-linecap:round;stroke-linejoin:bevel;stroke-dasharray:none;stroke-dashoffset:0;stroke-opacity:1;paint-order:stroke fill markers"
         d="m 659.07211,-61.399736 c 0,20.67775 0,41.355498 0,62.03324632"
         id="path12943"
         inkscape:path-effect="#path-effect12944"
         inkscape:original-d="m 659.07211,-61.399736 c 0,20.67775 0,41.355498 0,62.03324632"
         transform="matrix(0.69339747,0.92375063,-0.92375063,0.69339747,161.39747,-619.55177)" /><path
         style="fill:#000080;fill-opacity:1;stroke:#000080;stroke-width:3;stroke-linecap:round;stroke-linejoin:bevel;stroke-dasharray:none;stroke-dashoffset:0;stroke-opacity:1;paint-order:stroke fill markers"
         d="m 659.07211,-61.399736 c 0,20.67775 0,41.355498 0,62.03324632"
         id="path12944"
         inkscape:path-effect="#path-effect12946"
         inkscape:original-d="m 659.07211,-61.399736 c 0,20.67775 0,41.355498 0,62.03324632"
         transform="matrix(0.69339747,0.92375063,-0.92375063,0.69339747,171.37471,-606.25997)" /><path
         style="fill:#000080;fill-opacity:1;stroke:#000080;stroke-width:3;stroke-linecap:round;stroke-linejoin:bevel;stroke-dasharray:none;stroke-dashoffset:0;stroke-opacity:1;paint-order:stroke fill markers"
         d="m 660.2815,-61.46168 c -0.40313,20.698398 -0.80626,41.396794 -1.20939,62.09519032"
         id="path12946"
         inkscape:path-effect="#path-effect12948"
         inkscape:original-d="m 660.2815,-61.46168 c -0.40313,20.698398 -0.80626,41.396794 -1.20939,62.09519032"
         transform="matrix(0.69339747,0.92375063,-0.92375063,0.69339747,151.42021,-632.84354)"
         sodipodi:nodetypes="cc" /><path
         style="fill:#000080;fill-opacity:1;stroke:#000080;stroke-width:3;stroke-linecap:round;stroke-linejoin:bevel;stroke-dasharray:none;stroke-dashoffset:0;stroke-opacity:1;paint-order:stroke fill markers"
         d="m 660.18413,-29.164345 c -0.37067,9.932619 -0.74135,19.8652373 -1.11202,29.79785532"
         id="path12948"
         transform="matrix(0.69339747,0.92375063,-0.92375063,0.69339747,141.44296,-646.13533)"
         inkscape:original-d="m 660.18413,-29.164345 c -0.37067,9.932619 -0.74135,19.8652372 -1.11202,29.79785532"
         inkscape:path-effect="#path-effect12950"
         sodipodi:nodetypes="cc" /><path
         style="fill:#000080;fill-opacity:1;stroke:#000080;stroke-width:3;stroke-linecap:round;stroke-linejoin:bevel;stroke-dasharray:none;stroke-dashoffset:0;stroke-opacity:1;paint-order:stroke fill markers"
         d="m 659.07211,-61.399736 c 0,20.67775 0,41.355498 0,62.03324632"
         id="path12952"
         inkscape:path-effect="#path-effect12954"
         inkscape:original-d="m 659.07211,-61.399736 c 0,20.67775 0,41.355498 0,62.03324632"
         transform="matrix(0.92375063,-0.69339747,0.69339747,0.92375063,39.138313,460.3146)" /><path
         style="fill:#000080;fill-opacity:1;stroke:#000080;stroke-width:3;stroke-linecap:round;stroke-linejoin:bevel;stroke-dasharray:none;stroke-dashoffset:0;stroke-opacity:1;paint-order:stroke fill markers"
         d="m 659.07211,-61.399736 c 0,20.67775 0,41.355498 0,62.03324632"
         id="path12955"
         inkscape:path-effect="#path-effect12962"
         inkscape:original-d="m 659.07211,-61.399736 c 0,20.67775 0,41.355498 0,62.03324632"
         transform="matrix(0.92375063,-0.69339747,0.69339747,0.92375063,75.095062,474.87361)" /><path
         style="fill:#000080;fill-opacity:1;stroke:#000080;stroke-width:3;stroke-linecap:round;stroke-linejoin:bevel;stroke-dasharray:none;stroke-dashoffset:0;stroke-opacity:1;paint-order:stroke fill markers"
         d="m 659.07211,-61.399736 c 0,20.67775 0,41.355498 0,62.03324632"
         id="path12956"
         inkscape:path-effect="#path-effect12964"
         inkscape:original-d="m 659.07211,-61.399736 c 0,20.67775 0,41.355498 0,62.03324632"
         transform="matrix(0.69339747,0.92375063,-0.92375063,0.69339747,181.44964,-593.05426)" /><path
         style="fill:#000080;fill-opacity:1;stroke:#000080;stroke-width:3;stroke-linecap:round;stroke-linejoin:bevel;stroke-dasharray:none;stroke-dashoffset:0;stroke-opacity:1;paint-order:stroke fill markers"
         d="m 659.07211,-61.399736 c 0,20.67775 0,41.355498 0,62.03324632"
         id="path12957"
         inkscape:path-effect="#path-effect12966"
         inkscape:original-d="m 659.07211,-61.399736 c 0,20.67775 0,41.355498 0,62.03324632"
         transform="matrix(0.69339747,0.92375063,-0.92375063,0.69339747,191.42688,-579.76246)" /><path
         style="fill:#000080;fill-opacity:1;stroke:#000080;stroke-width:3;stroke-linecap:round;stroke-linejoin:bevel;stroke-dasharray:none;stroke-dashoffset:0;stroke-opacity:1;paint-order:stroke fill markers"
         d="m 659.07211,-61.399736 c 0,20.67775 0,41.355498 0,62.03324632"
         id="path12958"
         inkscape:path-effect="#path-effect12968"
         inkscape:original-d="m 659.07211,-61.399736 c 0,20.67775 0,41.355498 0,62.03324632"
         transform="matrix(0.69339747,0.92375063,-0.92375063,0.69339747,171.47238,-606.34603)" /><path
         style="fill:#000080;fill-opacity:1;stroke:#000080;stroke-width:3;stroke-linecap:round;stroke-linejoin:bevel;stroke-dasharray:none;stroke-dashoffset:0;stroke-opacity:1;paint-order:stroke fill markers"
         d="m 659.07211,-61.399736 c 0,20.67775 0,41.355498 0,62.03324632"
         id="path12959"
         inkscape:path-effect="#path-effect12970"
         inkscape:original-d="m 659.07211,-61.399736 c 0,20.67775 0,41.355498 0,62.03324632"
         transform="matrix(0.69339747,0.92375063,-0.92375063,0.69339747,161.49513,-619.63782)" /><path
         style="fill:#000080;fill-opacity:1;stroke:#000080;stroke-width:3;stroke-linecap:round;stroke-linejoin:bevel;stroke-dasharray:none;stroke-dashoffset:0;stroke-opacity:1;paint-order:stroke fill markers"
         d="m 659.07211,-61.399736 c 0,20.67775 0,41.355498 0,62.03324632"
         id="path12960"
         inkscape:path-effect="#path-effect12972"
         inkscape:original-d="m 659.07211,-61.399736 c 0,20.67775 0,41.355498 0,62.03324632"
         transform="matrix(0.92375063,-0.69339747,0.69339747,0.92375063,90.999637,462.93511)" /><path
         style="fill:#000080;fill-opacity:1;stroke:#000080;stroke-width:3;stroke-linecap:round;stroke-linejoin:bevel;stroke-dasharray:none;stroke-dashoffset:0;stroke-opacity:1;paint-order:stroke fill markers"
         d="m 659.07211,-61.399736 c 0,20.67775 0,41.355498 0,62.03324632"
         id="path12961"
         inkscape:path-effect="#path-effect12974"
         inkscape:original-d="m 659.07211,-61.399736 c 0,20.67775 0,41.355498 0,62.03324632"
         transform="matrix(0.92375063,-0.69339747,0.69339747,0.92375063,59.190487,486.81211)" /></g></g><g
     inkscape:groupmode="layer"
     id="layer2"
     inkscape:label="Layer 2"
     transform="translate(19.730346,10.872259)"><path
       style="display:inline;fill:#ffffff;fill-opacity:1;stroke:none;stroke-width:10.776;stroke-linecap:round;stroke-linejoin:round;stroke-dasharray:none;stroke-dashoffset:0;stroke-opacity:1;paint-order:markers fill stroke"
       d="m 666.41025,118.51615 c 7.94889,3.94681 16.73563,14.19118 19.99721,20.22016 3.26157,6.02899 0.99807,7.84252 -2.71929,8.01549 -3.71736,0.17297 -8.88834,-1.29459 -15.70553,-6.14827 -6.81719,-4.85367 -15.28017,-13.09311 -15.95616,-18.3883 -0.67599,-5.29519 6.43489,-7.64589 14.38377,-3.69908 z"
       id="path12974"
       inkscape:path-effect="#path-effect12975"
       inkscape:original-d="m 665.57239,112.2186 c 8.78674,10.24437 17.57349,20.48873 26.36024,30.73309 -2.2636,1.8136 -4.5271,3.62713 -6.79064,5.4407 -5.17118,-1.46762 -10.34216,-2.93518 -15.51323,-4.40277 -8.46331,-8.23976 -16.92629,-16.4792 -25.38943,-24.71879 7.11116,-2.35079 14.22204,-4.70149 21.33306,-7.05223 z"
       transform="matrix(1.0404614,0,0,1.0404614,-478.81482,79.131313)" /><path
       style="display:none;fill:#000080;stroke-width:1.04046"
       d="m 59.843991,238.348 c -1.636916,-0.72143 -3.071286,-2.34031 -3.339267,-3.7688 -0.950628,-5.0673 2.182753,-9.29806 6.886325,-9.29806 1.889343,0 3.610453,0.70186 3.610453,1.47233 0,0.43973 -1.77511,2.19819 -2.219002,2.19819 -0.192694,0 -0.350365,-0.16203 -0.350365,-0.36006 0,-0.67861 -1.742846,-0.80774 -2.890662,-0.21417 -3.258892,1.68522 -2.645394,6.72906 0.899364,7.39406 1.653273,0.31015 3.089806,-0.47484 4.08403,-2.23169 0.456981,-0.80751 0.888169,-1.63143 0.958192,-1.83094 0.07897,-0.22496 0.517068,-0.18515 1.153466,0.10482 0.910414,0.41481 1.002817,0.61136 0.819228,1.74265 -0.636544,3.92253 -5.773396,6.48337 -9.611762,4.79167 z m 29.694373,-2.70327 c -0.557365,-0.37217 -1.247867,-1.74674 -1.247867,-2.48411 0,-0.87338 1.99162,-2.61466 3.591652,-3.1402 1.424642,-0.46793 4.748905,-2.98836 7.770686,-5.89168 0.974855,-0.93663 2.739995,-2.36001 3.922525,-3.16306 1.18255,-0.80306 4.37993,-3.17658 7.10528,-5.27451 2.72537,-2.09791 5.53331,-4.21995 6.23988,-4.71564 1.11346,-0.78112 17.54661,-12.99311 29.91471,-22.23055 2.22067,-1.65857 6.10223,-4.39173 8.62572,-6.07372 2.52348,-1.68198 4.72023,-3.27135 4.88168,-3.53192 0.16143,-0.26058 0.80571,-0.73864 1.43171,-1.06236 l 1.13819,-0.58858 -0.21297,2.06343 c -0.11712,1.13489 -0.54435,2.59726 -0.94939,3.24971 -0.76834,1.23772 -4.51624,4.24609 -11.06089,8.87838 -9.26199,6.55562 -37.99311,27.95144 -45.19835,33.65883 -1.74401,1.38146 -3.43704,2.51175 -3.76228,2.51175 -0.32524,0 -0.59135,0.14918 -0.59135,0.33151 0,0.3409 -8.019239,6.56091 -9.437023,7.31967 -0.907054,0.48544 -1.58222,0.53012 -2.161913,0.14305 z m 136.121466,-1.73186 c -3.83824,-1.07854 -4.81193,-1.88314 -17.52697,-14.48336 -6.86386,-6.80187 -16.23745,-15.87865 -20.83018,-20.17061 -4.59273,-4.29196 -8.34981,-8.07978 -8.34905,-8.41738 7.5e-4,-0.3376 0.31074,-1.12116 0.68888,-1.74124 1.06734,-1.75031 17.32666,-17.98899 18.70509,-18.68136 1.43742,-0.722 1.04394,-0.9655 5.93121,3.67042 1.71597,1.62771 4.85427,4.60158 6.97399,6.6086 3.37386,3.19448 14.41122,14.00704 26.79682,26.25105 4.72868,4.6746 6.22769,7.27723 6.51653,11.31408 0.29483,4.12062 -0.31293,5.81162 -3.45178,9.60396 -2.88883,3.49026 -4.44986,4.74098 -7.0654,5.66084 -2.41377,0.84891 -6.13111,1.01951 -8.38914,0.385 z m 8.42042,-3.59796 c 1.0717,-0.50192 2.27888,-1.17601 2.68264,-1.49799 0.63413,-0.5057 0.65912,-0.63559 0.18353,-0.95382 -0.30283,-0.20262 -1.54162,-0.3768 -2.75289,-0.38704 -1.21127,-0.0104 -2.56023,-0.21924 -2.99768,-0.46444 -0.43745,-0.24519 -6.38369,-5.92266 -13.21386,-12.61659 -6.83017,-6.69393 -14.73091,-14.22704 -17.55721,-16.74023 -2.8263,-2.51319 -6.99101,-6.4925 -9.25491,-8.84292 -2.26389,-2.35041 -4.24695,-4.27347 -4.40678,-4.27347 -0.15983,0 -0.50103,0.45422 -0.75823,1.00939 -0.2572,0.55516 -1.28856,1.64086 -2.29192,2.41265 -1.00335,0.77179 -1.82427,1.52673 -1.82427,1.67763 0,0.1509 1.03233,1.10547 2.29407,2.12128 2.82361,2.27323 14.96479,13.98288 27.43197,26.45701 5.14507,5.14795 10.07039,9.94636 10.94514,10.66315 3.34953,2.7447 7.59523,3.27369 11.5204,1.43539 z m -156.165244,1.66492 c -1.771792,-1.96607 -0.916522,-4.3438 2.007123,-5.57995 1.069729,-0.45228 2.770832,-1.60512 3.780214,-2.56184 1.009394,-0.95674 2.743718,-2.3833 3.854046,-3.17016 1.110329,-0.78686 3.175,-2.35299 4.588144,-3.4803 1.413154,-1.12731 5.600616,-4.2684 9.305467,-6.98021 7.89223,-5.77678 9.77789,-7.17591 23.46456,-17.4103 5.6695,-4.23945 12.47654,-9.27723 15.12674,-11.19508 2.65021,-1.91784 6.90182,-5.0176 9.44802,-6.88836 2.54621,-1.87075 5.53133,-3.99999 6.6336,-4.73164 l 2.00415,-1.33027 1.19252,1.42043 1.19253,1.42044 -1.66775,1.47595 c -2.85135,2.52343 -6.35165,5.24833 -10.2809,8.00347 -2.07766,1.45682 -6.20699,4.55577 -9.1763,6.88656 -2.96931,2.33078 -7.05048,5.3717 -9.06926,6.75759 -2.01879,1.38588 -9.12124,6.58977 -15.78322,11.5642 -6.66199,4.97442 -12.93857,9.60446 -13.94797,10.28895 -1.009391,0.6845 -4.147683,3.00203 -6.973982,5.15006 -2.826288,2.14802 -6.035227,4.4053 -7.130968,5.01618 -2.621162,1.46131 -5.491108,3.8226 -5.51404,4.53676 -0.04578,1.42639 -2.023541,1.94955 -3.052724,0.80752 z m -31.468401,-4.87055 c -4.32575,-0.77007 -6.524547,-4.74141 -4.792761,-8.65641 0.958473,-2.16678 1.965702,-3.29435 3.768749,-4.219 2.449725,-1.25629 6.100912,-0.67414 7.399449,1.17977 1.470016,2.09876 -0.130526,3.42133 -2.33131,1.92644 -1.871145,-1.271 -3.469085,-1.14958 -4.998459,0.3798 -3.468202,3.4682 0.654262,8.31887 4.880148,5.74218 0.785518,-0.47897 1.316621,-1.19479 1.607992,-2.16732 0.334467,-1.11636 0.656906,-1.49456 1.394353,-1.63554 1.392658,-0.26622 1.619853,0.0242 1.418201,1.81339 -0.407933,3.61916 -4.428162,6.33421 -8.346362,5.63669 z m 25.7576,-3.41177 c -0.43895,-0.46724 -0.798086,-1.28378 -0.798086,-1.81453 0,-1.09483 0.127102,-1.2075 8.075135,-7.1574 2.927234,-2.19132 8.625716,-6.54205 12.663279,-9.66829 9.161017,-7.09324 20.846407,-15.90186 30.766357,-23.19213 5.70312,-4.19128 10.92065,-7.54806 12.9128,-8.30763 3.45138,-1.31597 9.72464,-4.39829 12.20439,-5.99655 3.60506,-2.32355 3.55401,-2.29595 3.20597,-1.73282 -0.69181,1.11937 -7.72216,6.62681 -17.42915,13.65366 -5.24847,3.79934 -7.99312,5.87993 -15.41617,11.68625 -3.49215,2.73157 -7.67046,5.83635 -13.80048,10.25472 -2.6608,1.91784 -10.711994,7.90537 -17.891531,13.30561 -7.179528,5.40025 -13.197858,9.81863 -13.37406,9.81863 -0.176202,0 -0.679505,-0.38228 -1.118454,-0.84952 z m -43.009033,-3.77324 c -0.706567,-0.30605 -1.736842,-0.98921 -2.289494,-1.51813 -2.546217,-2.43687 -1.203928,-6.84662 2.840075,-9.33033 1.562804,-0.95983 4.557824,-0.91375 5.833565,0.0898 3.492038,2.74683 3.115495,8.9606 -0.651318,10.74807 -1.55884,0.73971 -4.038999,0.74431 -5.732828,0.0106 z m 5.023306,-3.1493 c 1.816822,-1.70681 0.393253,-4.70769 -2.233257,-4.70769 -1.42718,0 -2.94745,1.13012 -3.336541,2.48025 -0.17948,0.6228 0.03402,1.10129 0.859733,1.92703 1.381806,1.3818 3.420559,1.51184 4.710065,0.30041 z m 27.85749,2.13452 c -2.302021,-2.17108 -2.449121,-1.98694 7.112522,-8.90359 3.524448,-2.54951 9.616579,-7.13413 13.538078,-10.18805 3.921488,-3.05392 9.544277,-7.371 12.495077,-9.59353 2.95079,-2.22252 6.356115,-4.82472 7.567395,-5.78266 1.21127,-0.95795 3.51651,-2.68487 5.12275,-3.8376 2.72092,-1.95268 3.13469,-2.12696 6.05635,-2.55083 1.72475,-0.25023 3.54885,-0.56765 4.05354,-0.70538 0.828,-0.22596 0.77422,-0.10021 -0.55058,1.28746 -1.51204,1.58379 -3.78829,3.40391 -10.46097,8.36475 -2.11973,1.57591 -6.74522,5.17667 -10.2789,8.00166 -3.533667,2.82501 -7.993345,6.30791 -9.910395,7.73976 -5.785163,4.32099 -14.736159,10.91419 -16.882922,12.43577 -1.110328,0.78697 -2.844653,2.11389 -3.854046,2.94871 -2.614502,2.16232 -2.557735,2.15121 -4.007899,0.78353 z m -8.038282,-8.1128 c -1.27571,-1.27572 -0.57961,-2.2994 2.955462,-4.34628 1.567965,-0.90789 3.924464,-2.45961 5.236673,-3.44828 5.765259,-4.34377 12.219585,-9.26984 15.783227,-12.04606 2.119722,-1.65136 4.263301,-3.21872 4.763514,-3.48304 0.500202,-0.26432 2.234526,-1.65231 3.854035,-3.08442 1.61952,-1.43212 4.47363,-3.7361 6.342466,-5.11996 l 3.397886,-2.5161 2.598116,0.6367 c 2.060965,0.50506 2.496765,0.72647 2.107895,1.07091 -2.705026,2.39591 -6.427079,5.45603 -10.320205,8.48486 -2.580178,2.00735 -6.626928,5.17765 -8.99276,7.0451 -8.630471,6.81236 -17.684899,13.53162 -20.599835,15.28705 -3.413046,2.05541 -6.032137,2.61385 -7.126474,1.51952 z m -8.79578,-5.9037 c -0.709303,-0.48199 -1.67816,-1.50124 -2.153016,-2.26504 l -0.863375,-1.38869 -0.09988,-30.31946 c -0.05535,-16.80233 0.0438,-30.70815 0.222586,-31.19132 0.319088,-0.86259 0.329514,-0.85829 0.981061,0.40475 0.362206,0.70213 1.227703,2.01989 1.923335,2.92834 l 1.264785,1.65173 -0.02882,8.99277 c -0.01581,4.94602 0.06388,17.16884 0.177211,27.16182 0.174111,15.35471 0.290528,18.26293 0.751546,18.77505 0.799928,0.8886 2.784483,1.13824 5.227622,0.65758 l 2.151164,-0.42321 -1.421843,-2.43314 -1.421842,-2.43314 v -21.57011 c 0,-14.13538 0.12651,-21.57011 0.367043,-21.57011 0.201881,0 0.367054,0.13461 0.367054,0.29914 0,0.16453 0.834294,1.11428 1.853978,2.11055 l 1.853977,1.8114 -0.235644,2.68334 c -0.129599,1.47583 -0.114523,10.02354 0.0335,18.99492 l 0.269136,16.31159 h 1.282806 c 1.014741,0 1.756913,-0.4027 3.55148,-1.92702 2.03406,-1.72775 6.30375,-5.05658 12.953422,-10.09905 1.260841,-0.9561 4.038863,-3.19313 6.17338,-4.97118 l 3.880942,-3.2328 1.901755,0.6168 c 1.045965,0.33924 2.029035,0.73204 2.184605,0.87288 0.286324,0.25923 -5.201787,5.20441 -8.908566,8.02724 -1.110328,0.84555 -3.092407,2.38419 -4.404616,3.4192 -14.104568,11.12507 -17.508292,13.5338 -19.124326,13.5338 -0.356025,0 -1.250021,0.73553 -1.986657,1.63449 -2.722211,3.32211 -6.356376,4.54555 -8.723749,2.93688 z m -12.890338,-0.10777 c -0.308102,-0.49851 -0.509327,-53.28661 -0.262821,-68.94282 0.124502,-7.90717 0.362642,-14.51272 0.529189,-14.67901 0.166547,-0.16628 0.465752,-0.0112 0.664897,0.34467 0.199144,0.35585 0.508026,0.55681 0.686392,0.44657 0.178377,-0.11024 0.864904,1.41413 1.525608,3.3875 l 1.201296,3.58795 0.01176,37.56029 c 0.01155,36.76395 -0.0031,37.57134 -0.700689,38.0816 -0.771418,0.56444 -3.345811,0.71461 -3.655671,0.21325 z m -12.741917,-6.07114 c -4.008617,-1.43252 -5.771533,-4.61302 -4.567022,-8.23943 0.637802,-1.92026 2.349143,-3.82661 3.990762,-4.44552 0.5683,-0.21426 2.017257,-0.38957 3.219895,-0.38957 2.051686,0 2.287912,0.0933 3.828076,1.51304 1.871468,1.72506 2.525408,3.50293 2.150592,5.84685 -0.322824,2.01887 -2.137544,4.36855 -4.166787,5.39516 -1.854425,0.93815 -2.578909,0.9901 -4.455516,0.31947 z m 3.681433,-2.96443 c 1.154558,-0.59705 2.233579,-2.55147 2.233579,-4.04568 0,-1.57176 -1.818529,-3.128 -3.655203,-3.128 -1.97027,0 -3.215463,0.85466 -3.725518,2.55707 -0.534755,1.78486 0.316457,3.73218 1.992765,4.55885 1.456126,0.7181 1.863008,0.72555 3.154377,0.0577 z M 172.22202,182.73884 c -3.05831,-3.16786 -3.13019,-3.82454 -0.76325,-6.97326 3.86852,-5.14626 14.58453,-16.18669 15.71107,-16.18669 0.26997,0 1.54587,1.11746 2.83532,2.48325 1.28947,1.36578 2.80719,2.8152 3.37273,3.22092 l 1.02825,0.73769 -3.78114,3.35609 c -2.07963,1.84585 -4.89154,4.52577 -6.24868,5.95537 -1.35715,1.42959 -2.69712,2.59926 -2.97771,2.59926 -0.28058,0 -1.13369,-0.49552 -1.89578,-1.10115 -0.76209,-0.60563 -1.48679,-1.11067 -1.61044,-1.1223 -0.12365,-0.0116 -0.86662,-0.0883 -1.65105,-0.17045 -1.23342,-0.12911 -1.59603,0.0205 -2.68233,1.10681 -1.54828,1.54828 -1.34957,2.08945 1.55513,4.23527 1.83344,1.35444 1.9752,1.55884 1.59346,2.29745 -0.51553,0.99742 -1.45327,2.09541 -1.78959,2.09541 -0.13746,0 -1.35066,-1.14015 -2.69599,-2.53367 z m -110.285838,1.72615 c -0.323771,-0.32378 -0.440458,-3.47739 -0.440458,-11.90435 v -11.4639 l 1.872144,1.25986 c 1.029671,0.69292 2.036932,1.25986 2.238344,1.25986 0.228725,0 0.276815,0.79235 0.128081,2.11055 -0.130963,1.1608 -0.06888,5.30907 0.137882,9.21837 0.411835,7.78519 0.363152,8.07452 -1.55523,9.24424 -1.361412,0.83012 -1.777857,0.87828 -2.380763,0.27537 z m -40.98366,-3.32181 c -0.446545,-1.41804 -0.924762,-6.62492 -0.723859,-7.88133 0.318839,-1.99385 0.562598,-2.29716 2.038763,-2.5367 2.088404,-0.33891 2.440902,1.10509 1.915947,7.84867 l -0.235727,3.02817 h -1.425317 c -0.81851,0 -1.48684,-0.19534 -1.569807,-0.45881 z m 50.318805,-6.02428 c -0.292973,-2.13743 -0.30344,-7.27134 -0.0154,-7.55936 0.119268,-0.11927 0.911621,0.31348 1.760783,0.96166 0.849162,0.64819 2.320729,1.47518 3.27015,1.83776 0.94941,0.36259 1.726208,0.73903 1.726208,0.83655 0,0.82363 -3.167247,3.61312 -6.099382,5.37192 -0.267773,0.16062 -0.490682,-0.34205 -0.642339,-1.44853 z m 27.957322,-4.18669 c -8.347757,-1.45344 -13.956634,-3.28728 -21.032074,-6.87653 -10.557239,-5.3555 -18.232338,-11.85965 -25.856527,-21.91174 -5.563617,-7.33535 -8.900034,-14.12258 -11.805189,-24.01517 -2.666921,-9.0814 -3.13721,-15.93232 -1.807042,-26.324317 0.80386,-6.280226 0.797451,-6.247705 2.269465,-11.508719 1.412665,-5.048916 2.188163,-7.020595 4.795809,-12.193243 7.995842,-15.860898 19.688068,-27.22151 35.339895,-34.337568 9.196899,-4.181344 17.930313,-6.02053 28.630034,-6.029253 18.81519,-0.01534 34.53764,6.111922 49.48838,19.286324 5.6713,4.997468 11.64526,13.128616 15.62623,21.268794 2.77941,5.683264 4.10345,9.646773 5.60626,16.782393 1.15526,5.485381 1.19656,5.977844 1.18468,14.125713 -0.0121,8.306026 -0.0336,8.539866 -1.33438,14.498546 -1.59512,7.30719 -3.34241,12.30101 -6.3572,18.16905 -4.39092,8.54659 -10.05375,15.80549 -16.92741,21.69838 -10.66797,9.14583 -23.37375,15.14472 -37.24851,17.58649 -4.45429,0.78389 -15.48646,0.66637 -20.572421,-0.21915 z m 20.628291,-11.13689 c 12.50718,-2.64729 21.75436,-7.20278 30.42723,-14.98953 10.3987,-9.33623 17.21336,-20.88654 19.57167,-33.17242 0.73248,-3.81596 0.83535,-5.48025 0.8253,-13.352105 -0.0104,-7.749028 -0.11791,-9.475031 -0.78099,-12.479756 -1.59027,-7.206093 -5.93387,-17.059857 -10.01546,-22.720798 -11.51192,-15.966399 -25.93932,-24.256591 -44.84785,-25.770213 -4.19114,-0.3355 -5.77058,-0.302896 -9.72687,0.200784 -5.59453,0.712247 -14.154021,2.744283 -18.074116,4.290822 -3.700525,1.459913 -9.841141,4.734635 -13.253824,7.068116 -4.39598,3.005825 -11.826685,10.685149 -15.135872,15.642293 -6.338679,9.495316 -9.525071,18.642488 -10.591159,30.404093 -0.923877,10.192684 1.528563,22.075524 6.520593,31.594364 2.400053,4.57646 3.378732,6.05685 6.982692,10.56232 8.550793,10.68973 22.667523,19.41351 35.524973,21.95351 8.711673,1.72101 16.776453,1.99557 22.573683,0.76852 z m -23.216022,-6.93448 c -1.039764,-0.29113 -1.376447,-0.57686 -1.376447,-1.16814 0,-1.38331 0.02247,-1.40286 9.725009,-8.44761 1.94628,-1.41315 7.0146,-5.21213 11.26293,-8.44218 4.24833,-3.23006 38.09053,-28.41599 38.46822,-28.69065 0.61675,-0.44851 -1.75826,1.15751 -1.40029,2.09907 0.21922,0.57658 0.832,1.61656 1.36172,2.31107 0.52973,0.69451 2.57364,-0.21171 2.37306,-0.14484 -0.51105,0.17035 -42.89885,31.77283 -44.90627,33.39939 -0.90845,0.7361 -3.01801,2.30939 -4.68791,3.49619 -1.6699,1.18681 -3.8678,3.03714 -4.88422,4.11185 -2.01078,2.1261 -2.859668,2.33717 -5.935802,1.47585 z m -10.552734,-4.3298 c -0.908448,-0.57804 -1.858202,-1.05411 -2.110545,-1.05792 -1.304957,-0.0197 0.495312,-1.74421 5.994369,-5.74209 1.631402,-1.18605 3.943827,-2.88929 5.138724,-3.78498 1.194887,-0.8957 8.201358,-6.09242 15.569908,-11.54829 7.36856,-5.45586 14.91007,-11.08219 16.75888,-12.50295 1.84883,-1.42077 7.1128,-5.30857 11.69773,-8.63956 4.58493,-3.331 10.58764,-7.695802 13.33936,-9.699569 7.79513,-5.676316 11.12841,-7.972324 11.31016,-7.790573 0.092,0.09197 0.19708,1.202675 0.23356,2.468228 l 0.0663,2.301005 -2.93641,2.320367 c -1.61503,1.276203 -4.01004,3.092807 -5.32225,4.036899 -3.24605,2.335433 -9.95364,7.302803 -15.00043,11.108723 -31.83057,24.00431 18.13409,-13.85906 -14.78136,11.0656 -9.56844,7.2455 -22.15158,16.50647 -26.377114,19.41308 -2.725364,1.87468 -6.276584,4.48734 -7.891609,5.80591 -1.615035,1.31857 -3.184176,2.59983 -3.486992,2.84726 -0.448345,0.36632 -0.857298,0.25469 -2.202313,-0.60114 z m -8.924183,-5.59984 c -0.309267,-0.47199 -1.070614,-1.06872 -1.691884,-1.32606 -0.62127,-0.25734 -1.129587,-0.59772 -1.129587,-0.7564 0,-0.53248 3.680392,-3.60427 7.554134,-6.30495 10.363121,-7.22495 25.114796,-17.87119 31.169816,-22.49517 2.8263,-2.15834 7.18516,-5.43696 9.68637,-7.28583 2.50119,-1.84887 6.135,-4.55725 8.07513,-6.018628 10.38177,-7.81993 26.3927,-19.235591 29.65251,-21.141987 0.28716,-0.167936 0.63263,0.439914 1.03325,1.817993 l 0.60184,2.070283 -0.98075,1.023684 c -0.9905,1.033856 -5.26324,4.232747 -14.66665,10.980529 -2.82629,2.028121 -7.50276,5.462644 -10.39214,7.632276 -2.88938,2.16963 -6.85354,5.06181 -8.80924,6.42707 -1.9557,1.36526 -5.28325,3.84286 -7.39454,5.50577 -2.1113,1.66292 -5.50192,4.1797 -7.53472,5.59285 -2.0328,1.41315 -4.84764,3.44778 -6.2552,4.5214 -4.43991,3.38654 -10.136887,7.54129 -13.937807,10.16471 -2.018776,1.39337 -5.900353,4.20234 -8.625706,6.24216 -6.179082,4.62477 -5.689045,4.36642 -6.354826,3.3503 z m -9.001895,-8.42307 -1.225237,-1.90373 1.225237,-1.02932 c 0.673875,-0.56613 3.95059,-2.94595 7.281575,-5.2885 5.777328,-4.06296 7.83122,-5.52681 18.352584,-13.08032 2.523483,-1.81166 5.744367,-4.2265 7.157515,-5.36631 1.41314,-1.13982 5.3773,-4.0272 8.80924,-6.4164 3.43193,-2.3892 8.44811,-6.0144 11.14707,-8.056 4.91945,-3.721271 9.17423,-6.849698 16.25647,-11.952952 2.08771,-1.504348 4.78689,-3.507301 5.99815,-4.451006 1.21128,-0.943705 4.10181,-2.968182 6.42342,-4.498836 2.32159,-1.530655 4.70439,-3.156865 5.29509,-3.6138 0.7257,-0.561357 1.12193,-0.687042 1.22176,-0.387545 0.0813,0.243787 0.52511,1.188628 0.98633,2.09965 l 0.83858,1.656402 -2.42739,1.961908 c -1.33506,1.079049 -3.58361,2.753491 -4.99675,3.720982 -1.41314,0.967491 -3.64299,2.614609 -4.9552,3.660261 -1.31221,1.045652 -3.38728,2.577521 -4.61126,3.404154 -1.22399,0.826634 -6.67471,4.869858 -12.11271,8.984943 -5.438,4.115084 -10.96089,8.210189 -12.2731,9.100239 -1.31222,0.89005 -6.20809,4.43396 -10.87973,7.87537 -19.272814,14.1975 -19.482186,14.34786 -27.477175,19.7325 -3.028179,2.03948 -6.080227,4.17764 -6.78232,4.75148 -0.702103,0.57384 -1.445388,1.03371 -1.651732,1.02195 -0.206355,-0.0118 -0.926542,-0.87807 -1.600417,-1.92512 z m -6.074672,-7.80914 c -0.527316,-0.94348 -0.958764,-1.84118 -0.958764,-1.99489 0,-0.41726 4.382579,-3.84785 9.359814,-7.32669 2.422548,-1.69323 7.460326,-5.33198 11.195083,-8.0861 3.734747,-2.75412 8.524771,-6.24625 10.644493,-7.76028 7.279265,-5.199275 14.86867,-10.678774 17.43496,-12.587905 6.28128,-4.672824 14.11258,-10.396962 20.55489,-15.024185 3.83569,-2.755006 8.59323,-6.250631 10.57231,-7.768056 1.97908,-1.517426 4.67509,-3.267694 5.99111,-3.889487 1.31603,-0.621793 2.48111,-1.360701 2.58906,-1.642018 0.34594,-0.901518 0.84085,-0.553824 1.68248,1.182012 l 0.82109,1.693499 -1.65174,1.455334 c -2.08889,1.840517 -3.58929,2.971275 -12.8468,9.681855 -8.60639,6.23859 -12.61461,9.196011 -15.23265,11.239245 -2.0109,1.569392 -13.64661,10.13575 -20.12884,14.819096 -15.010297,10.84482 -18.336059,13.23589 -23.924555,17.20069 -3.435884,2.43762 -7.945046,5.58825 -10.02035,7.0014 -2.075305,1.41315 -4.076934,2.78368 -4.448056,3.04563 -0.60583,0.42762 -0.772709,0.30103 -1.633535,-1.23915 z m -4.406812,-8.6887 c -0.376168,-1.05986 -0.757185,-2.11844 -0.846696,-2.3524 -0.180031,-0.47053 4.774771,-4.31399 11.268728,-8.74119 2.321602,-1.58273 5.459894,-3.81487 6.973984,-4.96032 1.514089,-1.14544 3.731167,-2.7049 4.926855,-3.465459 1.195677,-0.760558 4.664315,-3.236206 7.708081,-5.501437 3.043766,-2.265233 8.094301,-5.918304 11.223416,-8.117936 5.41394,-3.805762 9.67387,-6.977743 20.97109,-15.615242 11.41295,-8.725971 21.91144,-15.648242 23.02845,-15.183993 0.007,0.665926 2.02897,1.182051 2.68758,2.043105 0.49346,0.922027 -2.72053,2.597115 -9.24784,7.224588 -4.56817,3.238551 -9.16901,6.605051 -25.0411,18.322938 -4.58713,3.386542 -11.436243,8.387187 -15.220245,11.112546 -3.784002,2.725359 -7.463687,5.470542 -8.177079,6.100408 -0.713393,0.629865 -3.031405,2.261872 -5.151127,3.626682 -2.119722,1.3648 -4.845085,3.25532 -6.056349,4.20116 -1.211274,0.94583 -4.184392,3.10228 -6.60693,4.79211 -2.422548,1.68983 -6.020703,4.28045 -7.995915,5.75694 -1.975211,1.47649 -3.629472,2.68452 -3.676127,2.68452 -0.04661,0 -0.392607,-0.86716 -0.768776,-1.92702 z m 95.619788,-7.09601 c -1.89415,-2.40802 -1.50959,-2.95601 5.17771,-7.37793 2.5679,-1.698 4.7662,-3.24468 4.8851,-3.43708 0.1189,-0.192387 0.47869,-0.349798 0.79951,-0.349798 0.50449,0 0.55196,0.406638 0.35126,3.009188 -0.12816,1.66197 -0.44009,3.20397 -0.69674,3.44426 -0.61825,0.57883 -9.14223,5.65926 -9.49514,5.65926 -0.15184,0 -0.61161,-0.42656 -1.0217,-0.9479 z M 55.617367,108.9851 c -0.0031,-0.33545 -0.243552,-1.27061 -0.534465,-2.07812 -0.676872,-1.87883 -0.738186,-4.34574 -0.102381,-4.11776 0.930037,0.33348 2.550212,-0.74044 21.01371,-13.928849 15.756602,-11.254874 25.279739,-18.224968 34.502859,-25.253027 10.59261,-8.071626 16.77941,-12.378123 19.25694,-13.404348 1.23427,-0.511253 1.24147,-0.508208 2.64176,1.11737 l 1.40412,1.63002 -0.82339,0.658571 c -0.45286,0.362214 -2.06218,1.508489 -3.57627,2.547276 -1.51409,1.038789 -6.3637,4.624002 -10.77691,7.967143 -4.41321,3.34314 -8.81827,6.656544 -9.78902,7.363118 -0.97075,0.706575 -4.29722,3.140926 -7.39215,5.40967 -3.094927,2.268743 -7.361463,5.366118 -9.481195,6.883054 -3.822832,2.735737 -6.308464,4.533727 -17.985531,13.009933 C 63.099866,104.68357 55.62337,109.65048 55.617335,108.9851 Z M 66.091515,85.658993 c -2.761208,-2.761204 -0.477083,-7.932621 3.503691,-7.932621 1.188519,0 1.497307,0.183359 2.186332,1.298227 0.928799,1.502824 0.784227,3.231399 -0.436349,5.217214 -1.48145,2.410254 -3.670196,3.000667 -5.253674,1.41718 z m 10.578027,-9.17438 c -3.222309,-1.047912 -4.896369,-3.241237 -4.896369,-6.415127 0,-2.086214 1.920754,-5.583745 4.462091,-8.125086 2.781788,-2.781781 8.557785,-5.797265 11.726312,-6.121971 2.004355,-0.205403 2.081079,-0.179121 3.002064,1.028352 2.676358,3.508892 3.121988,7.430091 1.165286,10.253618 -1.484468,2.142084 -7.575298,7.884283 -9.291861,8.760012 -1.978053,1.009123 -4.26456,1.239054 -6.167523,0.620202 z m 86.511348,88.946657 -4.94333,-4.75456 0.78742,-0.78741 0.78742,-0.78742 3.97238,3.50436 c 2.18482,1.92739 4.4556,4.01479 5.0462,4.63867 0.98471,1.04022 1.03286,1.21081 0.58032,2.0564 -0.27143,0.50714 -0.67205,0.91363 -0.89028,0.90329 -0.21824,-0.0103 -2.62129,-2.15833 -5.34013,-4.77333 z m -144.446684,0.79689 c -1.726791,-0.44941 -3.353323,-1.40835 -4.18744,-2.46876 -2.599229,-3.30439 -1.130233,-8.72996 2.923634,-10.79809 2.004729,-1.02274 5.005337,-0.9761 6.589096,0.10241 1.809248,1.23207 2.123634,1.91425 1.301087,2.82317 -0.85759,0.94762 -1.488339,0.95269 -2.672176,0.0215 -1.111192,-0.87406 -2.671541,-0.94172 -4.145073,-0.17972 -1.366709,0.70675 -1.827914,1.5856 -1.827914,3.48319 0,2.62778 1.437522,4.38193 3.602889,4.39646 1.681791,0.0113 2.454865,-0.48547 3.415471,-2.19465 0.909841,-1.61883 1.239252,-1.73968 2.443315,-0.89632 1.012587,0.70925 1.027102,1.38586 0.06316,2.94554 -1.408993,2.2798 -4.705331,3.4942 -7.506055,2.76529 z M 167.29238,161.6837 c -2.26784,-2.2743 -4.12054,-4.38025 -4.1171,-4.67991 0.003,-0.29966 1.48327,-2.02389 3.28853,-3.83162 l 3.28229,-3.28678 4.51131,4.3659 c 2.48122,2.40124 4.64297,4.47443 4.80389,4.60709 0.1609,0.13266 -0.4172,0.79561 -1.28468,1.47323 -0.8675,0.67762 -2.40312,2.17475 -3.41251,3.32695 -1.00939,1.1522 -2.08572,2.1096 -2.39182,2.12756 -0.30611,0.018 -2.41207,-1.82813 -4.67991,-4.10242 z"
       id="path12880"
       sodipodi:nodetypes="sssssssssssssssssssssssscsssssssssssssssssssssssscsssssssssssssssssssssscccsssssssssssssssssssssssssssssssssssssscsssssssssssssssssssssssssssssscsssssssscscssccssscccsssscsscsssscsssssssscssssscccccsssssssssssssssssssscssssssssssssscssscsssssscsssssssssssssssssssssscsssssssscsssssssssssssssssssssssscssssssssccsssssssccssssssssscssssssssssscsssssssssssscsssssssssssssssssssssscsssssssssssssssssssssssssssssssssssscsssssscsssssssccsssssssssssssscccsssssssssssssssssssscscssssss" /><path
       d="m 109.76281,27.735774 c -1.33746,0.001 -2.64406,0.03062 -3.92483,0.08992 -1.28075,0.0593 -2.53572,0.148192 -3.76928,0.267684 -1.23355,0.119492 -2.445799,0.269445 -3.641632,0.451135 -1.195834,0.181691 -2.374812,0.395416 -3.542418,0.641304 -1.167605,0.24589 -2.323787,0.52404 -3.472654,0.836126 -1.148867,0.312085 -2.290659,0.657899 -3.430287,1.038179 -1.139617,0.380281 -2.276966,0.794927 -3.416844,1.245402 -1.139867,0.450474 -2.282221,0.936675 -3.431827,1.459342 -1.956483,0.889507 -3.851153,1.845395 -5.684415,2.868042 -1.833251,1.022649 -3.604897,2.112263 -5.315946,3.269052 -1.71106,1.156788 -3.361752,2.380715 -4.951639,3.672644 -1.589887,1.291928 -3.119116,2.651787 -4.588872,4.079854 -1.469745,1.428066 -2.879591,2.924444 -4.230224,4.489648 -1.350644,1.565205 -2.642148,3.199203 -3.8747,4.902544 -1.232561,1.70334 -2.406243,3.476062 -3.521753,5.318538 -1.1155,1.842476 -2.172941,3.754507 -3.172419,5.737118 -0.651912,1.29316 -1.189071,2.386434 -1.650546,3.377571 -0.461476,0.991137 -0.847061,1.880416 -1.195272,2.765723 -0.348201,0.885307 -0.659413,1.766798 -0.971521,2.742468 -0.312096,0.975671 -0.625067,2.045581 -0.978231,3.307809 -0.736002,2.630504 -1.102566,3.937241 -1.385447,5.371765 -0.282881,1.434523 -0.482254,2.996466 -0.884184,6.136576 -0.332542,2.597998 -0.552412,4.974688 -0.653701,7.220231 -0.05067,1.122771 -0.072,2.212971 -0.06253,3.281451 0.0094,1.06847 0.04973,2.11554 0.120922,3.15226 0.07117,1.03673 0.173601,2.06325 0.307998,3.09077 0.134386,1.02752 0.300537,2.05611 0.499702,3.09697 0.199176,1.04086 0.431105,2.09412 0.696599,3.17086 0.265495,1.07675 0.564773,2.17677 0.898137,3.31195 0.726294,2.47314 1.479463,4.75209 2.287715,6.89415 0.404136,1.07103 0.822151,2.10797 1.257293,3.11764 0.435142,1.00967 0.887462,1.99228 1.360643,2.95486 0.47317,0.96257 0.966953,1.90521 1.485175,2.83497 0.518223,0.92975 1.060626,1.84676 1.630913,2.75797 1.140564,1.8224 2.392323,3.62164 3.783232,5.45548 0.953021,1.25651 1.906864,2.45772 2.867002,3.60805 0.960148,1.15032 1.926924,2.25016 2.905249,3.30367 0.978325,1.05351 1.96848,2.06062 2.976053,3.02669 1.007562,0.96607 2.032052,1.89065 3.079911,2.77864 1.047859,0.888 2.118671,1.73972 3.217887,2.55902 1.099227,0.8193 2.227305,1.60629 3.388949,2.36626 1.161634,0.75997 2.356906,1.49295 3.592027,2.20297 1.235111,0.71002 2.510082,1.3971 3.829741,2.06654 1.768857,0.89731 3.445592,1.68498 5.096845,2.38435 1.651244,0.69937 3.276757,1.31027 4.941817,1.85467 1.665051,0.54439 3.369753,1.02229 5.180042,1.45469 1.810288,0.43239 3.726142,0.81951 5.813089,1.18287 1.271481,0.22138 2.914471,0.39502 4.733551,0.51832 1.81907,0.12329 3.81454,0.196 5.78983,0.21704 1.97528,0.021 3.93085,-0.01 5.67097,-0.0951 1.74012,-0.0854 3.26446,-0.22519 4.37802,-0.42116 1.73435,-0.30522 3.45035,-0.66601 5.14647,-1.08159 1.69611,-0.41558 3.37258,-0.88592 5.02708,-1.41025 1.65449,-0.52434 3.28738,-1.10277 4.89686,-1.73426 1.60948,-0.63149 3.19523,-1.31606 4.75629,-2.05311 1.56108,-0.73704 3.09718,-1.5263 4.60644,-2.36729 1.50927,-0.841 2.99218,-1.7335 4.44624,-2.67684 1.45407,-0.94334 2.8792,-1.93765 4.27468,-2.98173 1.39547,-1.04409 2.76083,-2.13823 4.09432,-3.28146 0.85921,-0.73661 1.69953,-1.49461 2.52077,-2.27376 0.82126,-0.77915 1.62353,-1.57951 2.40658,-2.40089 0.78305,-0.82137 1.54723,-1.66368 2.29185,-2.52697 0.74461,-0.8633 1.46964,-1.74764 2.17558,-2.65256 0.70594,-0.90491 1.39278,-1.83035 2.05982,-2.77657 0.66703,-0.94623 1.31464,-1.91285 1.94251,-2.90008 0.62789,-0.98723 1.23621,-1.99514 1.8247,-3.02307 0.5885,-1.02793 1.15697,-2.07619 1.70584,-3.14451 0.7537,-1.46701 1.42802,-2.87903 2.04071,-4.28656 0.61268,-1.40754 1.16365,-2.81046 1.67018,-4.25814 0.50652,-1.44768 0.96881,-2.94046 1.40405,-4.52789 0.43522,-1.58743 0.84352,-3.26953 1.2423,-5.09633 0.32518,-1.48967 0.57038,-2.62151 0.75551,-3.61115 0.18513,-0.98964 0.31006,-1.8372 0.3948,-2.75797 0.0848,-0.92077 0.12945,-1.91468 0.15348,-3.19774 0.024,-1.28306 0.0275,-2.85497 0.0305,-4.931478 0.003,-2.036965 0.003,-3.595934 -0.0176,-4.873604 -0.0203,-1.27767 -0.0603,-2.274284 -0.13694,-3.187919 -0.0766,-0.913635 -0.18991,-1.743865 -0.35605,-2.688725 -0.16615,-0.944859 -0.38504,-2.004161 -0.67387,-3.375504 -0.3757,-1.783904 -0.74042,-3.369989 -1.1193,-4.833814 -0.3789,-1.463825 -0.77195,-2.805457 -1.2051,-4.102075 -0.43314,-1.296618 -0.9064,-2.547977 -1.44487,-3.830257 -0.53846,-1.282281 -1.14225,-2.595478 -1.8371,-4.016293 -0.49762,-1.017521 -1.0264,-2.035189 -1.58182,-3.046325 -0.55542,-1.011137 -1.13776,-2.016056 -1.74201,-3.008602 -1.2085,-1.985091 -2.50557,-3.920811 -3.85558,-5.758305 -0.675,-0.918747 -1.36289,-1.812783 -2.05982,-2.676323 -0.69693,-0.863539 -1.40264,-1.696227 -2.11253,-2.492354 -0.7099,-0.796126 -1.42397,-1.555705 -2.13786,-2.272213 -0.71388,-0.716507 -1.42791,-1.390181 -2.13682,-2.014864 -1.86884,-1.646798 -3.7497,-3.183262 -5.64719,-4.611604 -1.89749,-1.428343 -3.81173,-2.748613 -5.74694,-3.962033 -1.93521,-1.213419 -3.89104,-2.320247 -5.87303,-3.322277 -0.991,-0.501015 -1.98871,-0.97589 -2.9931,-1.42472 -1.00438,-0.44883 -2.01553,-0.871569 -3.03444,-1.268656 -1.01891,-0.397087 -2.04534,-0.768359 -3.07991,-1.114144 -1.03458,-0.345785 -2.07763,-0.666256 -3.12901,-0.961181 -1.05138,-0.294926 -2.11138,-0.564229 -3.18069,-0.808736 -1.0693,-0.244508 -2.14761,-0.463828 -3.23597,-0.658358 -2.17674,-0.389062 -4.39305,-0.678943 -6.65283,-0.870748 -2.25978,-0.191806 -4.56344,-0.285621 -6.91534,-0.283704 z m 0.32246,9.36067 c 1.41329,-0.02917 2.85608,0.04619 4.95164,0.213939 1.18178,0.0946 2.34617,0.21604 3.49333,0.363803 1.14715,0.147763 2.27719,0.322118 3.39049,0.523482 1.11329,0.201364 2.20952,0.429309 3.28972,0.684713 1.08019,0.255403 2.14419,0.538127 3.19205,0.84801 1.04786,0.309883 2.07964,0.647023 3.09593,1.011824 1.0163,0.364802 2.01692,0.75703 3.0024,1.17719 0.9855,0.42016 1.95601,0.868147 2.91145,1.344104 0.95546,0.475956 1.89588,0.979859 2.82206,1.512052 0.92617,0.532194 1.83809,1.092682 2.73574,1.681551 0.89767,0.58887 1.78109,1.206616 2.65101,1.8526 0.86992,0.645984 1.72641,1.320628 2.56935,2.024166 0.84293,0.703538 1.67253,1.43575 2.48925,2.197282 0.81673,0.761532 1.62048,1.551983 2.41174,2.371948 0.79127,0.819965 1.57024,1.669328 2.33682,2.548165 0.76657,0.878837 1.52077,1.787267 2.26342,2.725415 0.74266,0.938148 1.47365,1.906316 2.19314,2.904216 0.5102,0.707616 1.02437,1.48052 1.53687,2.305802 0.51249,0.825282 1.02298,1.702734 1.526,2.618962 1.00603,1.832453 1.98146,3.820065 2.8789,5.855973 0.89744,2.035908 1.71711,4.120281 2.41173,6.145878 0.34731,1.012799 0.66313,2.011073 0.94207,2.981213 0.27892,0.97014 0.52106,1.911988 0.71985,2.812749 0.16577,0.75118 0.29648,1.422605 0.39998,2.128035 0.10352,0.70543 0.17959,1.444815 0.23512,2.332674 0.11106,1.775719 0.14052,4.144639 0.14573,8.019149 0.005,3.935921 -0.0183,6.319871 -0.13436,8.196911 -0.0581,0.93853 -0.13917,1.7501 -0.25167,2.56574 -0.11249,0.81564 -0.25613,1.63552 -0.43925,2.58951 -0.29478,1.53573 -0.65906,3.05988 -1.0914,4.56974 -0.43234,1.50986 -0.93264,3.00524 -1.49914,4.48345 -0.56649,1.47821 -1.19929,2.93931 -1.89652,4.38009 -0.69723,1.44079 -1.45901,2.86107 -2.28358,4.25866 -0.82457,1.39758 -1.7118,2.77259 -2.66031,4.12119 -0.94849,1.34861 -1.95818,2.67128 -3.0272,3.96514 -1.06902,1.29385 -2.19764,2.55868 -3.38378,3.79201 -1.18612,1.23333 -2.42964,2.43482 -3.72948,3.60185 -1.08411,0.97334 -2.17726,1.89646 -3.28456,2.77141 -1.1073,0.87495 -2.22883,1.70184 -3.36981,2.48357 -1.14098,0.78172 -2.30145,1.51808 -3.48661,2.21175 -1.18516,0.69367 -2.3951,1.34465 -3.63493,1.95543 -1.23982,0.61079 -2.50977,1.18157 -3.81474,1.71463 -1.30499,0.53306 -2.64497,1.02829 -4.0256,1.4888 -1.38063,0.46051 -2.80171,0.88638 -4.26847,1.27951 -1.46677,0.39312 -2.97949,0.75377 -4.54288,1.08468 -0.72466,0.15339 -1.48452,0.28308 -2.27687,0.38964 -0.79234,0.10657 -1.61693,0.19016 -2.47065,0.25012 -1.70742,0.11992 -3.53127,0.14684 -5.44618,0.0816 -1.91489,-0.0652 -3.92117,-0.2227 -5.99291,-0.47129 -2.07173,-0.24858 -4.20877,-0.58829 -6.386684,-1.01854 -1.60718,-0.3175 -3.234202,-0.73204 -4.867404,-1.23455 -1.633201,-0.5025 -3.272573,-1.0932 -4.90513,-1.76423 -1.632567,-0.67104 -3.258527,-1.42226 -4.863782,-2.24534 -1.605266,-0.82309 -3.190014,-1.71818 -4.741321,-2.67684 -1.551296,-0.95867 -3.06909,-1.98096 -4.539772,-3.05873 -1.470682,-1.07777 -2.89422,-2.21061 -4.25762,-3.39101 -1.3634,-1.18039 -2.666432,-2.40817 -3.895883,-3.67471 -1.229461,-1.26654 -2.385206,-2.57207 -3.454061,-3.90829 -0.900988,-1.12636 -1.638217,-2.06344 -2.274272,-2.90731 -0.636065,-0.84388 -1.17105,-1.59448 -1.66864,-2.34715 -0.49758,-0.75266 -0.957745,-1.50783 -1.443318,-2.36058 -0.485573,-0.85274 -0.996793,-1.80299 -1.596806,-2.9471 -0.623996,-1.18986 -1.208298,-2.41684 -1.751315,-3.67265 -0.543007,-1.25581 -1.044519,-2.54086 -1.503259,-3.84679 -0.45875,-1.30593 -0.874716,-2.63267 -1.245921,-3.97288 -0.371206,-1.34022 -0.697827,-2.69381 -0.978232,-4.05247 -0.280414,-1.35866 -0.514404,-2.72272 -0.70074,-4.08399 -0.186336,-1.36127 -0.324926,-2.71941 -0.413927,-4.06745 -0.08896,-1.34805 -0.128393,-2.68594 -0.116791,-4.004924 0.01165,-1.318984 0.07418,-2.619219 0.189655,-3.893302 0.133262,-1.470199 0.299726,-2.89951 0.501263,-4.293795 0.201537,-1.394285 0.438263,-2.75353 0.712102,-4.083472 0.273839,-1.329942 0.584646,-2.630599 0.934823,-3.907772 0.350178,-1.277173 0.739925,-2.530719 1.170478,-3.766695 0.430543,-1.235976 0.902018,-2.454407 1.416963,-3.660758 0.514945,-1.206352 1.073007,-2.400629 1.676381,-3.588929 0.603384,-1.188299 1.252361,-2.370934 1.948201,-3.552754 0.69584,-1.181821 1.438542,-2.363258 2.230874,-3.550171 0.827302,-1.239285 1.912296,-2.648411 3.142964,-4.112411 1.230668,-1.463999 2.606917,-2.982956 4.017325,-4.440556 1.410408,-1.457599 2.854933,-2.854085 4.221443,-4.074169 1.366522,-1.220086 2.6553,-2.263348 3.754297,-3.014804 0.853168,-0.58337 1.876587,-1.225644 2.989995,-1.883605 1.113419,-0.657962 2.316837,-1.331748 3.528985,-1.978174 1.212148,-0.646427 2.433337,-1.265595 3.582725,-1.81436 1.149397,-0.548765 2.227139,-1.027185 3.152265,-1.392163 0.980021,-0.386635 2.249602,-0.803551 3.690735,-1.222664 1.441122,-0.419115 3.053452,-0.840406 4.718055,-1.235584 1.664603,-0.395178 3.381822,-0.764177 5.032259,-1.079004 1.65043,-0.314828 3.23416,-0.575381 4.63279,-0.753443 1.97814,-0.251839 3.36212,-0.385787 4.77541,-0.414961 z"
       style="display:inline;fill:#000080;stroke-width:1.04046"
       id="path12977" /><path
       d="m 159.81247,159.10192 3.97236,3.50418 c 2.18482,1.92738 4.45561,4.01511 5.04621,4.63899 0.24618,0.26005 0.43355,0.46582 0.56947,0.6413 0.13592,0.17549 0.22014,0.32074 0.25942,0.45992 0.0393,0.13919 0.0339,0.27208 -0.01,0.42323 -0.0437,0.15116 -0.12561,0.32036 -0.23875,0.53175 -0.13571,0.25357 -0.30372,0.48224 -0.46508,0.64596 -0.16137,0.16372 -0.31619,0.26252 -0.4253,0.25735 -0.10912,-0.005 -0.7643,-0.54457 -1.73219,-1.40974 -0.9679,-0.86516 -2.24863,-2.05612 -3.60805,-3.36361 l -4.94337,-4.75475 0.78755,-0.78703 z"
       style="fill:#000080;stroke-width:1.04046"
       id="path12" /><path
       d="m 169.74623,149.88542 4.51135,4.36563 c 2.48122,2.40124 4.64292,4.47481 4.80384,4.60747 0.0805,0.0663 -0.024,0.26525 -0.25683,0.53227 -0.23285,0.26702 -0.5941,0.60222 -1.02784,0.94103 -0.43375,0.33881 -1.03462,0.88217 -1.65313,1.48518 -0.61852,0.60301 -1.25489,1.26564 -1.75959,1.84174 -0.50469,0.5761 -1.02582,1.10318 -1.45934,1.4888 -0.43352,0.38562 -0.77919,0.62974 -0.93224,0.63872 -0.15306,0.009 -0.75632,-0.44809 -1.60455,-1.19166 -0.84824,-0.74356 -1.94135,-1.77379 -3.07527,-2.91093 -1.13392,-1.13715 -2.16419,-2.2322 -2.91042,-3.08043 -0.74622,-0.84823 -1.20888,-1.44956 -1.20716,-1.59939 0.001,-0.14983 0.37232,-0.65582 0.96842,-1.3503 0.5961,-0.69448 1.41764,-1.57764 2.32027,-2.4815 z m 17.42374,9.69347 c 0.13499,0 0.52118,0.27958 1.03508,0.72967 0.5139,0.45009 1.15517,1.07049 1.79989,1.75338 1.28947,1.36578 2.80738,2.81527 3.37292,3.22099 l 1.02836,0.73794 -3.78116,3.35587 c -2.07963,1.84585 -4.89158,4.52611 -6.24872,5.95571 -0.67857,0.71479 -1.35268,1.36443 -1.89239,1.83555 -0.53971,0.47111 -0.94491,0.76326 -1.0852,0.76326 -0.14029,0 -0.42379,-0.12391 -0.7674,-0.3235 -0.34361,-0.19958 -0.74757,-0.4744 -1.12861,-0.77721 -0.76209,-0.60563 -1.48659,-1.11078 -1.61024,-1.12241 -0.12365,-0.0116 -0.86663,-0.0884 -1.65106,-0.17053 -0.30836,-0.0323 -0.56262,-0.047 -0.78703,-0.0341 -0.22442,0.0128 -0.41896,0.0532 -0.60927,0.13177 -0.19031,0.0785 -0.37636,0.1949 -0.58239,0.35967 -0.20603,0.16477 -0.43226,0.378 -0.70383,0.64957 -0.38707,0.38707 -0.66485,0.71087 -0.81856,1.01286 -0.0769,0.151 -0.12249,0.29681 -0.13539,0.44184 -0.0129,0.14502 0.007,0.28947 0.0615,0.43873 0.10962,0.29853 0.3588,0.6155 0.76171,0.99219 0.40291,0.37668 0.96003,0.81281 1.68621,1.34927 0.91671,0.67722 1.41038,1.06703 1.62729,1.37976 0.10845,0.15636 0.14765,0.29351 0.13591,0.4377 -0.0118,0.14419 -0.0746,0.29542 -0.17002,0.48007 -0.25776,0.49871 -0.6213,1.02296 -0.96221,1.42214 -0.17046,0.19959 -0.33527,0.36775 -0.47853,0.48627 -0.14326,0.11852 -0.26473,0.18707 -0.34881,0.18707 -0.13746,0 -1.35064,-1.14017 -2.69596,-2.53369 -0.76458,-0.79197 -1.3427,-1.4271 -1.74253,-1.98334 -0.19992,-0.27813 -0.35522,-0.53646 -0.46716,-0.78497 -0.11194,-0.24851 -0.18009,-0.4871 -0.20619,-0.72554 -0.0261,-0.23843 -0.0101,-0.47659 0.0476,-0.7245 0.0576,-0.24791 0.15642,-0.50546 0.29558,-0.78238 0.27833,-0.55385 0.71775,-1.18531 1.30948,-1.97249 0.96713,-1.28656 2.36221,-2.94124 3.92845,-4.69997 1.56623,-1.75873 3.30356,-3.6215 4.95525,-5.32319 1.65169,-1.7017 3.21758,-3.24243 4.44107,-4.35788 0.61175,-0.55772 1.13829,-1.00942 1.54668,-1.32136 0.40838,-0.31194 0.69892,-0.48421 0.83974,-0.48421 z"
       style="fill:#000080;stroke-width:1.04046"
       id="path11" /><path
       d="m 155.15224,170.8039 -2.00453,1.33015 c -1.10227,0.73165 -1.11244,0.70909 -3.65864,2.57983 -2.5462,1.87076 -6.7978,4.97012 -9.44801,6.88796 -2.65019,1.91784 -9.45723,6.95573 -15.12672,11.19518 -13.68666,10.23438 -15.57198,11.63353 -23.4642,17.4103 -3.704849,2.71181 -7.892224,5.85315 -9.305377,6.98046 -1.413142,1.12731 -3.478022,2.69303 -4.58835,3.47989 -1.110327,0.78686 -2.844636,2.21361 -3.854029,3.17035 -0.50469,0.47836 -1.182422,1.00586 -1.867586,1.47019 -0.685164,0.46434 -1.377681,0.86578 -1.912545,1.09192 -0.365455,0.15452 -0.698661,0.32651 -0.998388,0.51367 -0.299728,0.18716 -0.566067,0.38933 -0.797884,0.60306 -0.231818,0.21373 -0.428937,0.43911 -0.590662,0.67335 -0.161725,0.23423 -0.288305,0.47737 -0.377755,0.72605 -0.08945,0.24868 -0.142104,0.50311 -0.157096,0.76016 -0.01499,0.25705 0.0081,0.51683 0.06976,0.77618 0.06165,0.25935 0.161838,0.51801 0.302307,0.7736 0.14047,0.25559 0.321129,0.50768 0.542603,0.75344 0.128648,0.14275 0.272115,0.25971 0.42478,0.35192 0.152665,0.0922 0.314645,0.16 0.480074,0.20463 0.330859,0.0893 0.675716,0.0863 0.990121,0.003 0.314405,-0.0832 0.598218,-0.24673 0.806152,-0.47852 0.103967,-0.11589 0.189126,-0.24881 0.249597,-0.39739 0.06047,-0.14859 0.09608,-0.31263 0.101803,-0.49093 0.0057,-0.17854 0.189574,-0.45997 0.502811,-0.8046 0.313238,-0.34463 0.756027,-0.75278 1.280026,-1.18391 0.523998,-0.43112 1.129318,-0.8854 1.767334,-1.32343 0.638016,-0.43803 1.308414,-0.8594 1.963704,-1.22473 0.54787,-0.30544 1.624131,-1.02248 2.916618,-1.93167 1.292487,-0.90918 2.801587,-2.01055 4.21473,-3.08456 2.826296,-2.14803 5.964344,-4.46558 6.973742,-5.15008 1.00939,-0.68449 7.286,-5.31488 13.94798,-10.28929 6.66197,-4.97443 13.76475,-10.17827 15.78353,-11.56415 2.01878,-1.38589 6.09991,-4.42643 9.06922,-6.75721 2.9693,-2.33079 7.09852,-5.4301 9.17618,-6.88692 1.96462,-1.37757 3.82172,-2.74759 5.54437,-4.08864 1.72264,-1.34104 0.33592,-0.5006 1.7616,-1.76231 l 1.6676,-1.4764 -1.1927,-1.42006 z"
       style="display:inline;fill:#000080;stroke:#000080;stroke-width:3;stroke-linejoin:round;stroke-dasharray:none;stroke-opacity:1"
       id="path28"
       sodipodi:nodetypes="ccssssssssssssssssssscssssssssssssssscccc" /><path
       d="m 118.47132,177.25843 c 0.0907,0.002 0.11994,0.0398 0.0822,0.12816 -0.0755,0.17665 -0.42022,0.55467 -1.08262,1.2485 -0.75602,0.7919 -1.70274,1.64299 -3.29489,2.9161 -1.59215,1.27311 -3.82964,2.96835 -7.16597,5.44877 -2.11973,1.5759 -6.74529,5.17659 -10.278963,8.00157 -3.533664,2.82501 -7.992942,6.30825 -9.90999,7.7401 -5.785157,4.32099 -14.736446,10.91384 -16.883207,12.43542 -1.110327,0.78697 -2.844636,2.11383 -3.854028,2.94865 -0.653625,0.54058 -1.140488,0.94565 -1.525489,1.22732 -0.385001,0.28166 -0.668244,0.44007 -0.915189,0.48834 -0.123473,0.0241 -0.237959,0.0206 -0.3514,-0.009 -0.113441,-0.0294 -0.225469,-0.0845 -0.345199,-0.16433 -0.239458,-0.15959 -0.508207,-0.41669 -0.870747,-0.75861 -0.287753,-0.27139 -0.541584,-0.50619 -0.747242,-0.72244 -0.205657,-0.21625 -0.362764,-0.41431 -0.456819,-0.61237 -0.09406,-0.19806 -0.125085,-0.39608 -0.07803,-0.61288 0.04705,-0.2168 0.171971,-0.45202 0.389641,-0.7245 0.217669,-0.27249 0.527886,-0.58213 0.945678,-0.94723 0.417793,-0.3651 0.943178,-0.78589 1.590601,-1.28054 1.294845,-0.98932 3.078508,-2.27473 5.468917,-4.00389 3.524444,-2.54951 9.616696,-7.1341 13.538191,-10.18801 3.921484,-3.05392 9.544048,-7.37069 12.494845,-9.59322 2.950787,-2.22251 6.35622,-4.82517 7.56749,-5.7831 1.21127,-0.95795 3.51645,-2.68477 5.12269,-3.8375 0.68023,-0.48817 1.21655,-0.86516 1.68362,-1.16272 0.46707,-0.29755 0.86479,-0.51542 1.26917,-0.68574 0.40438,-0.17032 0.81525,-0.29301 1.30741,-0.39946 0.49217,-0.10646 1.06586,-0.19686 1.79628,-0.30283 1.72475,-0.25023 3.54881,-0.56765 4.0535,-0.70538 0.207,-0.0565 0.35889,-0.0911 0.44958,-0.0894 z"
       style="display:inline;fill:#000080;stroke:#000080;stroke-width:3;stroke-dasharray:none;stroke-opacity:1"
       id="path27" /><path
       d="m 67.845475,161.09663 1.872237,1.25987 c 1.02967,0.69292 2.037212,1.25987 2.238623,1.25987 0.05718,0 0.103111,0.0498 0.13746,0.14469 0.03435,0.0949 0.0572,0.23508 0.06821,0.41652 0.02202,0.36286 -0.0031,0.89016 -0.07752,1.54926 -0.06548,0.58039 -0.08287,1.90776 -0.05788,3.57859 0.025,1.67083 0.09196,3.68532 0.195337,5.63996 0.102959,1.9463 0.177129,3.42387 0.200505,4.56407 0.02338,1.14019 -0.0036,1.94301 -0.10387,2.53886 -0.05012,0.29792 -0.118455,0.54408 -0.207739,0.75499 -0.08928,0.21092 -0.199879,0.38649 -0.33383,0.54312 -0.267901,0.31326 -0.630415,0.55093 -1.11001,0.84336 -0.340352,0.20753 -0.621535,0.36618 -0.861446,0.47801 -0.23991,0.11183 -0.438574,0.17666 -0.613399,0.19689 -0.174825,0.0202 -0.326192,-0.005 -0.471289,-0.0718 -0.145097,-0.0673 -0.283872,-0.1769 -0.434599,-0.32762 -0.08094,-0.081 -0.149202,-0.33899 -0.205672,-0.81184 -0.05647,-0.47285 -0.101088,-1.16056 -0.135909,-2.10168 -0.06964,-1.88224 -0.09922,-4.77771 -0.09922,-8.99118 z"
       style="display:inline;fill:#000080;stroke:#000080;stroke-width:3;stroke-dasharray:none;stroke-opacity:1"
       id="path26"
       sodipodi:nodetypes="ccssscsssssssssccsssc" /><path
       d="m 17.671065,163.15813 c 1.765706,0.35039 5.039362,0.10382 5.039362,0.10382 0,0 0.08636,1.99091 0.245486,2.54986 -0.02102,1.57594 0.385803,3.11274 0.526019,4.67381 0.04863,0.51831 -0.133851,1.15274 -0.694678,1.30699 -0.922934,0.35156 -1.917052,0.44475 -2.884118,0.61042 -0.582506,0.0712 -1.196561,0.0801 -1.74736,-0.15035 -0.420991,-0.52107 -0.343596,-1.24172 -0.420636,-1.86862 -0.115927,-2.40644 -0.04644,-4.81768 -0.06407,-7.22593 z"
       style="display:inline;fill:#000080;stroke:#000080;stroke-width:2.11121;stroke-dasharray:none;stroke-opacity:1"
       id="path1"
       sodipodi:nodetypes="scccccccss" /><path
       d="m 50.122527,136.48778 c -0.06197,-0.0256 -0.11347,0.0156 -0.169499,0.11679 -0.05603,0.10116 -0.116599,0.26235 -0.196371,0.478 -0.08939,0.24159 -0.158737,3.83877 -0.198954,9.47591 -0.04022,5.63714 -0.05145,13.31431 -0.02377,21.71547 l 0.09974,30.3196 0.863513,1.38854 c 0.237428,0.3819 0.598336,0.82763 0.98857,1.23817 0.390234,0.41054 0.809619,0.78582 1.16427,1.02681 h 5.17e-4 c 0.295921,0.20108 0.611325,0.35779 0.942578,0.47181 0.331253,0.11401 0.678038,0.18516 1.036112,0.21497 0.358075,0.0298 0.727424,0.0185 1.103809,-0.0331 0.376385,-0.0515 0.759999,-0.14284 1.146183,-0.27285 0.386185,-0.13001 0.775246,-0.29875 1.16272,-0.50437 0.387473,-0.20562 0.773166,-0.4482 1.153418,-0.72657 0.380252,-0.27836 0.754792,-0.59226 1.119311,-0.94051 0.36452,-0.34825 0.719091,-0.73092 1.059367,-1.14618 0.368318,-0.44948 0.775767,-0.8582 1.135848,-1.15445 l -0.30541,-0.92445 -2.15129,0.42323 c -0.610785,0.12016 -1.192661,0.195 -1.734778,0.2253 -0.542117,0.0303 -1.044239,0.0164 -1.494999,-0.0403 -0.450761,-0.0567 -0.850292,-0.15629 -1.187008,-0.29714 -0.336716,-0.14086 -0.610821,-0.32304 -0.810803,-0.54519 -0.115255,-0.12803 -0.208856,-0.40606 -0.287321,-0.99064 -0.07846,-0.58458 -0.141606,-1.47563 -0.195854,-2.83083 -0.108495,-2.71041 -0.181145,-7.27626 -0.268201,-14.95361 -0.11333,-9.99297 -0.19306,-22.21615 -0.17725,-27.16217 l 0.02894,-8.99273 -1.265039,-1.65158 c -0.695631,-0.90845 -1.561191,-2.22637 -1.923397,-2.9285 -0.325773,-0.63152 -0.491014,-0.94829 -0.614949,-0.99942 z"
       style="display:inline;fill:#000080;stroke:#000080;stroke-width:3;stroke-dasharray:none;stroke-opacity:1;stroke-linejoin:round"
       id="path25"
       sodipodi:nodetypes="sssscccsccsscsssssccsssssssscccsss" /><ellipse
       style="display:inline;fill:#a5a5b1;fill-opacity:1;stroke:#ffffff;stroke-width:11.212;stroke-linecap:round;stroke-linejoin:bevel;stroke-dasharray:none;stroke-dashoffset:0;stroke-opacity:1;paint-order:markers fill stroke"
       id="path12954"
       cx="109.45694"
       cy="98.675987"
       rx="72.825272"
       ry="72.737541" /><path
       d="m 32.938041,118.03823 c -0.447915,-0.85418 -0.568917,6.72304 -0.60048,7.5619 -0.09592,2.66056 -0.186313,6.28868 -0.248564,10.24226 -0.06163,3.91405 -0.09547,10.14915 -0.106453,17.30748 -0.01099,7.15832 4.53e-4,15.24004 0.02946,22.84821 0.029,7.60818 0.0755,14.74241 0.133841,20.00602 0.05834,5.26361 0.128647,8.65675 0.205673,8.78137 0.07746,0.12534 0.296269,0.20975 0.593245,0.25735 0.296977,0.0476 0.672055,0.0584 1.061434,0.0357 0.389379,-0.0227 0.793062,-0.0787 1.147734,-0.16433 0.354671,-0.0856 0.660323,-0.20099 0.853177,-0.3421 0.0872,-0.0638 0.163855,-0.1322 0.230994,-0.27492 0.06714,-0.14271 0.125021,-0.35994 0.174666,-0.72089 0.09929,-0.72188 0.166132,-2.01929 0.21084,-4.44985 0.08942,-4.86112 0.08423,-32.63574 0.08423,-32.63574 l -0.01189,-37.5605 c 0,0 -1.993895,-7.39923 -3.757907,-10.89196 z"
       style="display:inline;fill:#000080;stroke:#000080;stroke-width:3;stroke-dasharray:none;stroke-opacity:1"
       id="path24"
       sodipodi:nodetypes="ssssssssssssssccs" /><path
       d="m 158.62026,97.383048 c -4.79876,4.154382 -42.36789,37.420072 -42.36789,37.420072 -4.22616,3.25898 -9.31661,7.02872 -11.26288,8.44186 -2.42563,1.76119 -4.24606,3.08332 -5.61258,4.09743 -1.366522,1.01411 -2.27898,1.72028 -2.888196,2.24947 -0.609216,0.5292 -0.915477,0.88161 -1.069185,1.18804 -0.153709,0.30644 -0.15503,0.56678 -0.15503,0.91261 0,0.14782 0.02092,0.27671 0.06873,0.39119 0.04781,0.11448 0.122373,0.21454 0.229443,0.30541 0.214141,0.18173 0.558607,0.32624 1.078488,0.4718 0.769031,0.21533 1.398418,0.36339 1.942,0.4315 0.543581,0.0681 1.001194,0.0563 1.42524,-0.0491 0.42404,-0.10543 0.81483,-0.30447 1.22524,-0.60978 0.41042,-0.30531 0.84038,-0.71698 1.34307,-1.24851 0.50821,-0.53735 1.31202,-1.26856 2.19729,-2.01383 0.88526,-0.74527 1.85222,-1.50466 2.68717,-2.09806 1.6699,-1.1868 3.77912,-2.76033 4.68757,-3.49643 1.00371,-0.81327 23.01462,-17.24546 23.01462,-17.24546 l 21.84566,-17.79362 1.64578,-1.89898 c 0,0 0.32213,-2.34273 -0.0345,-9.455612 z"
       style="fill:#000080;stroke:#000080;stroke-width:3;stroke-dasharray:none;stroke-opacity:1;stroke-linecap:round;stroke-linejoin:round"
       id="path5"
       sodipodi:nodetypes="ccssssssssssssssscccc" /><path
       d="m 109.76281,27.735775 c -1.33746,0.0011 -2.64406,0.03063 -3.92483,0.08992 -1.28076,0.05929 -2.53572,0.148192 -3.76927,0.267684 -1.23356,0.119491 -2.445809,0.269444 -3.641643,0.451135 -1.195834,0.181691 -2.374813,0.395416 -3.542419,0.641304 -1.167607,0.245889 -2.323786,0.52404 -3.472657,0.836125 -1.14887,0.312085 -2.290655,0.657899 -3.430281,1.03818 -1.139626,0.38028 -2.276973,0.794927 -3.416846,1.245402 -1.139873,0.450474 -2.282221,0.936675 -3.431832,1.459342 -1.956476,0.889506 -3.851154,1.845394 -5.684407,2.868042 -1.833253,1.022648 -3.604897,2.112263 -5.315955,3.269051 -1.711058,1.156789 -3.361745,2.380716 -4.951636,3.672644 -1.589891,1.291928 -3.119115,2.651788 -4.588867,4.079855 -1.469752,1.428066 -2.879591,2.924444 -4.230233,4.489648 -1.350641,1.565204 -2.642139,3.199203 -3.874698,4.902543 -1.23256,1.703341 -2.406244,3.476063 -3.521749,5.318539 -1.115506,1.842475 -2.172937,3.754507 -3.172417,5.737117 -0.65191,1.293161 -1.189069,2.386435 -1.650545,3.377572 -0.461475,0.991137 -0.847069,1.880416 -1.195276,2.765722 -0.348206,0.885307 -0.659413,1.766798 -0.971517,2.742469 -0.312103,0.97567 -0.625069,2.04558 -0.978234,3.307808 -0.736007,2.630504 -1.102564,3.937242 -1.385446,5.371765 -0.282881,1.434523 -0.482254,2.996467 -0.884183,6.136576 -0.332542,2.597997 -0.552413,4.974689 -0.653707,7.220232 -0.05065,1.12277 -0.07202,2.21297 -0.06253,3.28145 0.0095,1.06848 0.04976,2.11554 0.120923,3.15226 0.07117,1.03673 0.173597,2.06325 0.307992,3.09077 0.134394,1.02752 0.30054,2.05611 0.499711,3.09697 0.19917,1.04086 0.431104,2.09412 0.696598,3.17086 0.265494,1.07675 0.564772,2.17677 0.898136,3.31195 0.726289,2.47314 1.479459,4.75209 2.287716,6.89415 0.404129,1.07103 0.822144,2.10797 1.257288,3.11764 0.435144,1.00967 0.887465,1.99228 1.36064,2.95486 0.473175,0.96257 0.96696,1.90521 1.485181,2.83497 0.518221,0.92975 1.060626,1.84676 1.630908,2.75797 1.140565,1.8224 2.392329,3.62164 3.783232,5.45548 0.953022,1.25651 1.906865,2.45772 2.867008,3.60805 0.960143,1.15032 1.926926,2.25016 2.905249,3.30367 0.978324,1.05351 1.968483,2.06062 2.976046,3.02669 1.007563,0.96607 2.032053,1.89065 3.079915,2.77864 1.047863,0.888 2.118671,1.73972 3.217892,2.55902 1.099221,0.8193 2.227301,1.60629 3.38894,2.36626 1.161639,0.75997 2.356912,1.49295 3.592029,2.20297 1.235116,0.71002 2.510087,1.3971 3.82974,2.06654 1.768859,0.89731 3.446116,1.68498 5.097364,2.38435 1.651248,0.69937 3.276242,1.31027 4.9413,1.85467 1.665058,0.54439 3.369758,1.02229 5.180046,1.45469 1.810287,0.43239 3.726144,0.81951 5.813082,1.18287 1.271492,0.22138 2.914482,0.39502 4.733562,0.51832 1.81908,0.12329 3.81454,0.196 5.78983,0.21704 1.97528,0.021 3.93085,-0.01 5.67097,-0.0951 1.74012,-0.0854 3.26445,-0.22519 4.37803,-0.42116 1.73434,-0.30522 3.45034,-0.66601 5.14645,-1.08159 1.69612,-0.41558 3.37259,-0.88591 5.02709,-1.41025 1.65449,-0.52433 3.28738,-1.10277 4.89685,-1.73426 1.60948,-0.63149 3.19523,-1.31606 4.7563,-2.0531 1.56107,-0.73705 3.09717,-1.52631 4.60644,-2.3673 1.50927,-0.84099 2.99217,-1.7335 4.44624,-2.67684 1.45407,-0.94334 2.87971,-1.93765 4.27519,-2.98173 1.39548,-1.04408 2.76031,-2.13823 4.09381,-3.28145 0.85921,-0.73661 1.69953,-1.49462 2.52077,-2.27377 0.82125,-0.77914 1.62352,-1.57951 2.40658,-2.40088 0.78305,-0.82138 1.54723,-1.66368 2.29185,-2.52698 0.74461,-0.8633 1.46963,-1.74764 2.17557,-2.65255 0.70595,-0.90492 1.39279,-1.83035 2.05983,-2.77658 0.66703,-0.94622 1.31463,-1.91285 1.94251,-2.90008 0.62789,-0.98723 1.23621,-1.99514 1.8247,-3.02307 0.58849,-1.02793 1.15697,-2.07619 1.70584,-3.14451 0.75369,-1.46701 1.42801,-2.87902 2.0407,-4.28656 0.61269,-1.40754 1.16365,-2.81046 1.67018,-4.25814 0.50653,-1.44768 0.96882,-2.94046 1.40405,-4.52789 0.43523,-1.58743 0.84352,-3.26953 1.2423,-5.09633 0.3252,-1.48967 0.57038,-2.6215 0.75551,-3.61115 0.18513,-0.98964 0.31007,-1.83719 0.39481,-2.75797 0.0847,-0.92077 0.12944,-1.91467 0.15348,-3.19774 0.024,-1.28306 0.0275,-2.85497 0.0305,-4.931474 0.003,-2.036965 0.003,-3.595934 -0.0176,-4.873604 -0.0202,-1.277671 -0.0603,-2.274284 -0.13694,-3.187919 -0.0766,-0.913636 -0.18991,-1.743866 -0.35606,-2.688725 -0.16614,-0.94486 -0.38504,-2.004161 -0.67386,-3.375505 -0.3757,-1.783903 -0.74042,-3.369988 -1.11931,-4.833813 -0.37889,-1.463825 -0.77195,-2.805458 -1.20509,-4.102075 -0.43315,-1.296618 -0.90641,-2.547977 -1.44488,-3.830258 -0.53846,-1.28228 -1.14224,-2.595477 -1.83709,-4.016292 -0.49762,-1.017521 -1.0264,-2.035189 -1.58182,-3.046326 -0.55542,-1.011136 -1.13776,-2.016056 -1.74201,-3.008602 -1.2085,-1.985091 -2.50557,-3.92081 -3.85558,-5.758304 -0.675,-0.918748 -1.36289,-1.812783 -2.05982,-2.676323 -0.69693,-0.863539 -1.40264,-1.696228 -2.11253,-2.492354 -0.7099,-0.796127 -1.42397,-1.555705 -2.13786,-2.272213 -0.71388,-0.716507 -1.42791,-1.390181 -2.13682,-2.014864 -1.86884,-1.646799 -3.74971,-3.183262 -5.6472,-4.611605 -1.89749,-1.428342 -3.81121,-2.748612 -5.74642,-3.962032 -1.9352,-1.213419 -3.89155,-2.320248 -5.87354,-3.322278 -0.991,-0.501015 -1.98871,-0.975889 -2.9931,-1.424719 -1.00439,-0.44883 -2.01552,-0.871569 -3.03444,-1.268656 -1.01892,-0.397087 -2.04534,-0.768359 -3.07992,-1.114144 -1.03458,-0.345786 -2.07763,-0.666256 -3.129,-0.961182 -1.05138,-0.294925 -2.11138,-0.564229 -3.18069,-0.808736 -1.0693,-0.244507 -2.14761,-0.463827 -3.23598,-0.658358 -2.17673,-0.389061 -4.39304,-0.678942 -6.65282,-0.870748 -2.25978,-0.191805 -4.56344,-0.285621 -6.91534,-0.283703 z m 0.32246,9.360669 c 1.41329,-0.02917 2.85607,0.04619 4.95164,0.21394 1.18178,0.0946 2.34617,0.216039 3.49332,0.363802 1.14716,0.147763 2.2772,0.322119 3.39049,0.523482 1.1133,0.201364 2.20953,0.429309 3.28973,0.684713 1.08019,0.255404 2.14419,0.538127 3.19205,0.84801 1.04786,0.309884 2.07964,0.647023 3.09593,1.011825 1.0163,0.364802 2.01691,0.757029 3.0024,1.177189 0.98549,0.42016 1.956,0.868147 2.91145,1.344104 0.95545,0.475957 1.89588,0.979859 2.82205,1.512053 0.92618,0.532193 1.83809,1.092682 2.73575,1.681551 0.89767,0.588869 1.78109,1.206616 2.65101,1.8526 0.86991,0.645984 1.72641,1.320627 2.56935,2.024166 0.84293,0.703538 1.67253,1.43575 2.48925,2.197281 0.81672,0.761532 1.62047,1.551984 2.41174,2.371949 0.79127,0.819964 1.57023,1.669328 2.33681,2.548165 0.76658,0.878836 1.52077,1.787266 2.26343,2.725415 0.74265,0.938148 1.47365,1.906316 2.19314,2.904215 0.5102,0.707617 1.02436,1.48052 1.53686,2.305803 0.5125,0.825282 1.02299,1.702734 1.52601,2.618961 1.00603,1.832454 1.98145,3.820065 2.87889,5.855973 0.89744,2.035909 1.71712,4.120281 2.41174,6.145879 0.34731,1.012798 0.66313,2.011073 0.94206,2.981213 0.27894,0.97014 0.52107,1.911987 0.71985,2.812748 0.16577,0.751181 0.29649,1.422606 0.39998,2.128036 0.10349,0.70543 0.1796,1.444815 0.23513,2.332674 0.11106,1.775718 0.14052,4.144638 0.14572,8.019149 0.005,3.93592 -0.0183,6.31987 -0.13435,8.19692 -0.058,0.93852 -0.13918,1.75009 -0.25167,2.56573 -0.11249,0.81564 -0.25613,1.63552 -0.43925,2.58951 -0.29479,1.53573 -0.65906,3.05988 -1.0914,4.56974 -0.43235,1.50986 -0.93264,3.00524 -1.49914,4.48345 -0.56649,1.47821 -1.19929,2.93931 -1.89652,4.38009 -0.69724,1.44079 -1.45901,2.86159 -2.28358,4.25918 -0.82458,1.39758 -1.71181,2.77207 -2.66031,4.12067 -0.9485,1.34861 -1.95818,2.67128 -3.0272,3.96514 -1.06902,1.29385 -2.19764,2.55868 -3.38378,3.79201 -1.18613,1.23333 -2.42965,2.43482 -3.72948,3.60185 -1.08411,0.97334 -2.17726,1.89646 -3.28456,2.77141 -1.1073,0.87495 -2.22883,1.70184 -3.36982,2.48357 -1.14098,0.78172 -2.30145,1.51808 -3.48661,2.21175 -1.18515,0.69367 -2.39509,1.34465 -3.63492,1.95544 -1.23982,0.61078 -2.50977,1.18156 -3.81475,1.71462 -1.30498,0.53306 -2.64497,1.02829 -4.02559,1.4888 -1.38063,0.46051 -2.80171,0.88638 -4.26848,1.27951 -1.46676,0.39312 -2.97948,0.75377 -4.54287,1.08468 -0.72466,0.15339 -1.48452,0.28308 -2.27687,0.38964 -0.79235,0.10657 -1.61693,0.19016 -2.47065,0.25012 -1.70742,0.11992 -3.53127,0.14684 -5.44618,0.0816 -1.9149,-0.0652 -3.92118,-0.22271 -5.99291,-0.47129 -2.07173,-0.24859 -4.208776,-0.58829 -6.386692,-1.01854 -1.60718,-0.3175 -3.234202,-0.73205 -4.867404,-1.23455 -1.633201,-0.50251 -3.272564,-1.0932 -4.905127,-1.76424 -1.632562,-0.67103 -3.258523,-1.42225 -4.863785,-2.24534 -1.605263,-0.82309 -3.190011,-1.71817 -4.741313,-2.67684 -1.551302,-0.95866 -3.069095,-1.98096 -4.539775,-3.05873 -1.470679,-1.07776 -2.894224,-2.21061 -4.257621,-3.391 -1.363397,-1.18039 -2.666433,-2.40817 -3.895886,-3.67471 -1.229453,-1.26655 -2.385205,-2.57208 -3.454053,-3.90829 -0.900989,-1.12637 -1.638221,-2.06344 -2.27428,-2.90732 -0.636058,-0.84387 -1.171046,-1.59447 -1.668632,-2.34714 -0.497585,-0.75267 -0.957752,-1.50783 -1.443322,-2.36058 -0.48557,-0.85275 -0.996789,-1.803 -1.596802,-2.94711 -0.624003,-1.18985 -1.208308,-2.41683 -1.751314,-3.67264 -0.543007,-1.25581 -1.044526,-2.54087 -1.503268,-3.8468 -0.458742,-1.30593 -0.87471,-2.63267 -1.245919,-3.97288 -0.371208,-1.34022 -0.697827,-2.69381 -0.978234,-4.05247 -0.280407,-1.35866 -0.514396,-2.72271 -0.700733,-4.08399 -0.186337,-1.36127 -0.32493,-2.7194 -0.413928,-4.06745 -0.089,-1.34804 -0.128398,-2.68594 -0.116789,-4.004921 0.01161,-1.318983 0.07417,-2.619218 0.189653,-3.893302 0.133261,-1.470199 0.299725,-2.89951 0.501261,-4.293795 0.201536,-1.394284 0.438259,-2.753529 0.712101,-4.083471 0.273842,-1.329943 0.584648,-2.630599 0.934827,-3.907772 0.350179,-1.277173 0.739923,-2.53072 1.170471,-3.766695 0.430548,-1.235976 0.90202,-2.454408 1.416968,-3.660759 0.514948,-1.206351 1.073005,-2.400629 1.676383,-3.588928 0.603379,-1.1883 1.252361,-2.370935 1.948202,-3.552755 0.695841,-1.18182 1.438537,-2.363257 2.230872,-3.550171 0.827295,-1.239284 1.912291,-2.648411 3.14296,-4.11241 1.230669,-1.464 2.606916,-2.982956 4.017326,-4.440556 1.41041,-1.4576 2.85493,-2.854085 4.221448,-4.07417 1.366518,-1.220085 2.655299,-2.263347 3.754293,-3.014803 0.853169,-0.58337 1.876587,-1.225645 2.989998,-1.883606 1.113411,-0.657961 2.316832,-1.331747 3.528983,-1.978174 1.212152,-0.646426 2.433336,-1.265594 3.582728,-1.814359 1.149391,-0.548766 2.227132,-1.027186 3.152262,-1.392163 0.980023,-0.386635 2.249602,-0.803551 3.690731,-1.222665 1.441128,-0.419114 3.053459,-0.840405 4.718058,-1.235583 1.664599,-0.395179 3.381818,-0.764177 5.032252,-1.079004 1.65043,-0.314828 3.23416,-0.575381 4.63279,-0.753443 1.97814,-0.251839 3.36213,-0.385788 4.77542,-0.414961 z"
       style="fill:#000080;stroke-width:1.04046"
       id="path10" /><path
       d="m 160.48064,77.601982 c -0.81495,0.476598 -2.42691,1.547595 -4.54856,3.008085 -2.12164,1.46049 -4.75332,3.310559 -7.60728,5.34541 -5.70793,4.069702 -12.30573,8.878922 -17.49661,12.788883 -1.94013,1.46138 -5.57429,4.16937 -8.07548,6.01824 -2.5012,1.84887 -6.85993,5.12752 -9.68623,7.28586 -3.0275,2.31199 -8.22899,6.12957 -13.96917,10.27224 -5.74018,4.14267 -12.018945,8.61055 -17.2005,12.22303 -1.936869,1.35033 -3.825341,2.79355 -5.229655,3.96564 -0.702157,0.58605 -1.283222,1.10442 -1.688786,1.50947 l 2.859774,3.51811 c 0.112412,-0.0165 0.252358,-0.0687 0.435632,-0.16537 0.366549,-0.19325 0.905518,-0.56279 1.738912,-1.17305 0.833395,-0.61026 1.961477,-1.46122 3.506246,-2.61742 2.72535,-2.03981 6.607056,-4.84914 8.62583,-6.24251 1.900458,-1.31171 4.27496,-3.00616 6.729305,-4.79609 2.454342,-1.78993 4.988392,-3.67539 7.208342,-5.36866 1.40756,-1.07362 4.22212,-3.10803 6.25492,-4.52117 2.0328,-1.41315 5.42364,-3.93003 7.53494,-5.59294 2.11129,-1.66291 5.43868,-4.14035 7.39438,-5.50561 1.9557,-1.36526 5.9199,-4.25737 8.80928,-6.427 2.88938,-2.169629 7.56585,-5.604489 10.39213,-7.632608 4.7017,-3.373888 8.12083,-5.8607 10.48825,-7.633126 2.36742,-1.772426 3.68331,-2.830155 4.17856,-3.347083 l 0.98082,-1.02371 -0.60203,-2.070675 c -0.20031,-0.689038 -0.3868,-1.185567 -0.55914,-1.488798 -0.0862,-0.151615 -0.1685,-0.254639 -0.24753,-0.309541 -0.079,-0.0549 -0.15456,-0.06162 -0.22635,-0.01964 z"
       style="fill:#000080;stroke:#000080;stroke-width:3;stroke-dasharray:none;stroke-opacity:1;stroke-linejoin:round"
       id="path3"
       sodipodi:nodetypes="ssssssssscccssssssssssssccssss" /><path
       d="m 144.13435,63.87052 c -1.08588,0.704969 -2.2547,1.521769 -3.24424,2.280481 -1.97908,1.517423 -6.73628,5.012998 -10.57197,7.768001 -6.4423,4.627219 -14.27406,10.35107 -20.55533,15.023889 -2.56629,1.90913 -10.155338,7.38911 -17.434595,12.588379 -2.11972,1.51403 -6.910086,5.00613 -10.644829,7.76025 -3.734753,2.75412 -8.77212,6.39258 -11.194665,8.08581 -2.488615,1.73942 -4.828573,3.46694 -6.546371,4.81159 -0.858898,0.67233 -1.562402,1.24897 -2.051037,1.68362 -0.488636,0.43465 -0.762744,0.72716 -0.762744,0.83148 0,0.15371 0.431799,1.05174 0.959114,1.99522 0.430413,0.77009 0.687038,1.18631 0.912089,1.35703 0.112526,0.0853 0.216956,0.10946 0.331246,0.0853 0.11429,-0.0242 0.2387,-0.0967 0.390157,-0.2036 0.371122,-0.26195 2.372488,-1.63215 4.447791,-3.04529 2.075302,-1.41315 6.584696,-4.56403 10.020577,-7.00164 5.58849,-3.9648 8.914356,-6.3557 23.924637,-17.20051 6.48222,-4.683337 18.11759,-13.249855 20.12849,-14.819246 2.61804,-2.043232 6.62628,-5.000523 15.23266,-11.239107 4.62875,-3.355287 7.31819,-5.315718 9.11159,-6.667293 1.7934,-1.351576 2.69073,-2.094546 3.73517,-3.014803 l 1.6521,-1.455209 c -2.38285,-5.316058 -2.59356,-3.002036 -7.83984,0.375648 z"
       style="fill:#000080;stroke:#000080;stroke-width:3;stroke-dasharray:none;stroke-opacity:1"
       id="path2"
       sodipodi:nodetypes="sssssssssssccsssssssccs" /><path
       d="m 199.19353,170.03613 c -0.24162,0.0519 -0.48659,0.20243 -0.84595,0.38293 -0.3446,0.17309 -1.61949,1.31758 -3.35431,2.96467 -1.73483,1.64709 -3.9296,3.79646 -6.11488,5.97897 -2.18527,2.1825 -4.36105,4.39807 -6.05699,6.1774 -1.69594,1.77933 -2.9123,3.12241 -3.17914,3.55999 -0.18906,0.31004 -0.3609,0.66108 -0.48575,0.97668 -0.12486,0.3156 -0.20272,0.59601 -0.20309,0.76481 -1.9e-4,0.0844 0.23448,0.38457 0.65836,0.85421 0.42388,0.46965 1.03705,1.1089 1.79368,1.87172 1.51327,1.52565 3.60096,3.54567 5.89732,5.69165 2.29636,2.14597 5.78777,5.4877 9.56324,9.14362 3.77547,3.65592 7.83509,7.62579 11.26701,11.02672 3.17876,3.15005 5.62354,5.56275 7.56285,7.42694 1.9393,1.86418 3.37315,3.17965 4.52944,4.13515 0.57814,0.47774 1.08697,0.86571 1.55494,1.187 0.46797,0.3213 0.89514,0.57608 1.31,0.78807 0.41485,0.21199 0.81731,0.3814 1.2361,0.53123 0.41879,0.14983 0.85347,0.28015 1.33325,0.41496 0.56451,0.15863 1.22068,0.26715 1.92443,0.32712 0.70375,0.06 1.4551,0.0714 2.21175,0.0367 0.75666,-0.0347 1.51851,-0.11588 2.24173,-0.24133 0.72321,-0.12546 1.4078,-0.29524 2.01124,-0.50747 0.65389,-0.22996 1.24215,-0.48071 1.80144,-0.78186 0.5593,-0.30115 1.08969,-0.65272 1.62884,-1.08469 0.53916,-0.43197 1.08707,-0.94438 1.68052,-1.56683 0.59346,-0.62244 1.23271,-1.35469 1.95492,-2.22725 0.78471,-0.94809 1.41102,-1.76508 1.90479,-2.52129 0.49378,-0.75622 0.85474,-1.45208 1.10846,-2.15801 0.25373,-0.70594 0.40053,-1.42174 0.46509,-2.21899 0.0646,-0.79725 0.0468,-1.67562 -0.0269,-2.70578 -0.0722,-1.00921 -0.21987,-1.92906 -0.47491,-2.81378 -0.12751,-0.44236 -0.28158,-0.87563 -0.46663,-1.30741 -0.18506,-0.43178 -0.40116,-0.86167 -0.65164,-1.29656 -0.50097,-0.8698 -1.14077,-1.75995 -1.95079,-2.72439 -0.81001,-0.96443 -1.79026,-2.00325 -2.97243,-3.17189 -12.38559,-12.244 -23.42295,-23.05664 -26.79681,-26.25112 -2.11972,-2.00701 -5.25777,-4.98119 -6.97374,-6.60889 -1.22181,-1.15898 -2.11355,-2.01252 -2.78639,-2.63034 -0.67284,-0.61781 -1.12719,-0.99969 -1.47329,-1.21387 -0.17306,-0.1071 -0.31913,-0.17216 -0.45217,-0.20413 -0.13304,-0.032 -0.25282,-0.0306 -0.37362,-0.005 z m -12.43025,14.50248 c 0.0799,0 0.61565,0.48065 1.41438,1.25522 0.79873,0.77456 1.86012,1.8427 2.99207,3.0179 1.13195,1.17521 2.73933,2.75768 4.41678,4.36046 1.67745,1.60278 3.42532,3.22582 4.83847,4.48241 1.41314,1.2566 4.09483,3.76852 7.27707,6.80269 3.18224,3.03416 6.86491,6.59093 10.27999,9.93789 3.41509,3.34696 6.60909,6.43985 9.00411,8.7266 2.39501,2.28676 3.99083,3.76709 4.20956,3.88969 0.21872,0.1226 0.66538,0.23623 1.20871,0.32039 0.54333,0.0842 1.1834,0.13898 1.78904,0.14418 0.60563,0.005 1.21825,0.0513 1.7172,0.12144 0.49896,0.0702 0.88419,0.1643 1.0356,0.26561 0.1189,0.0796 0.20685,0.14756 0.26148,0.21239 0.0546,0.0648 0.0761,0.12658 0.0631,0.19431 -0.0261,0.13546 -0.19092,0.2944 -0.50798,0.54725 -0.40376,0.32198 -1.61083,0.99618 -2.68252,1.4981 -0.49065,0.22979 -0.98638,0.42215 -1.48467,0.57826 -0.49828,0.15611 -0.99899,0.27562 -1.50017,0.35863 -0.50117,0.083 -1.00292,0.12953 -1.50223,0.14005 -0.49931,0.0105 -0.99611,-0.0151 -1.4888,-0.0765 -0.49269,-0.0614 -0.98112,-0.15824 -1.46244,-0.29094 -0.48132,-0.1327 -0.95591,-0.30094 -1.4211,-0.50436 -0.4652,-0.20342 -0.92097,-0.44217 -1.36529,-0.71572 -0.44432,-0.27355 -0.87684,-0.58192 -1.29553,-0.92501 -0.87475,-0.71679 -5.80052,-5.51549 -10.94559,-10.66343 -6.23358,-6.23706 -12.38563,-12.28291 -17.33227,-17.05374 -2.47332,-2.38542 -4.64522,-4.45187 -6.37532,-6.06423 -1.73011,-1.61236 -3.01842,-2.77051 -3.72432,-3.33882 -0.63087,-0.5079 -1.20426,-1.00044 -1.62006,-1.38492 -0.4158,-0.38448 -0.67386,-0.66094 -0.67386,-0.73639 0,-0.0754 0.20524,-0.3021 0.53588,-0.60617 0.33065,-0.30407 0.78662,-0.68536 1.2883,-1.07125 0.50168,-0.38589 1.01034,-0.85048 1.42575,-1.28778 0.41541,-0.43729 0.7375,-0.84741 0.8661,-1.12499 0.1286,-0.27759 0.27856,-0.53019 0.41599,-0.71314 0.13743,-0.18295 0.2627,-0.2961 0.34262,-0.2961 z"
       style="fill:#000080;stroke-width:1.04046"
       id="path13" /><path
       d="m 89.146495,55.726831 c -0.30344,0.0076 -0.683843,0.04425 -1.18494,0.0956 -0.396062,0.04059 -0.833045,0.123399 -1.299661,0.242363 -0.466605,0.118963 -0.962676,0.274005 -1.477944,0.45992 -1.030535,0.371827 -2.13692,0.866031 -3.230809,1.437122 -1.09389,0.571089 -2.175231,1.219112 -3.157426,1.898075 -0.982196,0.678962 -1.865121,1.389182 -2.560576,2.084627 -0.635326,0.635335 -1.231948,1.330071 -1.769398,2.047937 -0.53744,0.717866 -1.015459,1.458984 -1.414382,2.185396 -0.398924,0.726413 -0.718668,1.438122 -0.938445,2.099097 -0.219776,0.660975 -0.339513,1.271102 -0.339513,1.792655 0,0.396736 0.02591,0.777828 0.07803,1.1436 0.05202,0.365771 0.129922,0.715902 0.233573,1.050065 0.10363,0.334162 0.232845,0.652553 0.387572,0.954464 0.154738,0.30191 0.335206,0.587781 0.540541,0.856795 0.205324,0.269014 0.435485,0.521069 0.690908,0.756543 0.255433,0.235473 0.536253,0.453968 0.841296,0.655257 0.305042,0.201289 0.634411,0.385443 0.988563,0.551904 0.354163,0.166461 0.733068,0.315496 1.135851,0.446484 0.475741,0.154713 0.975412,0.256223 1.488286,0.305925 0.512865,0.0497 1.038964,0.04745 1.567341,-0.0057 0.528378,-0.05313 1.059044,-0.157298 1.581304,-0.311092 0.522249,-0.153794 1.035623,-0.356985 1.530133,-0.609265 0.429139,-0.218932 1.131721,-0.742172 1.967326,-1.437122 0.835605,-0.69495 1.804305,-1.561679 2.765723,-2.468066 0.961417,-0.906387 1.915729,-1.852534 2.722315,-2.705778 0.806587,-0.853245 1.465459,-1.613702 1.836581,-2.149224 0.244581,-0.35294 0.45181,-0.723132 0.621665,-1.107425 0.169845,-0.384294 0.302639,-0.782944 0.398424,-1.192693 0.09583,-0.409748 0.154353,-0.830567 0.176733,-1.25987 0.02237,-0.429305 0.0083,-0.867036 -0.04183,-1.309998 -0.05036,-0.442963 -0.137018,-0.891315 -0.259418,-1.342037 -0.122389,-0.450722 -0.280602,-0.903406 -0.474388,-1.35599 -0.193786,-0.452583 -0.422791,-0.904859 -0.687297,-1.353405 -0.264496,-0.448547 -0.564628,-0.893608 -0.899167,-1.33222 -0.230244,-0.301867 -0.407653,-0.530126 -0.575677,-0.699181 -0.168024,-0.169055 -0.326403,-0.278767 -0.518826,-0.344682 -0.192423,-0.06591 -0.418994,-0.08765 -0.722445,-0.0801 z"
       style="fill:#ffffff;stroke:none;stroke-width:1.04046"
       id="path12983" /><path
       d="m 69.595237,77.726521 c -0.49759,0 -0.968597,0.08058 -1.406631,0.227377 -0.438034,0.146798 -0.843315,0.359752 -1.208714,0.623734 -0.365389,0.263982 -0.690815,0.579144 -0.97048,0.930693 -0.279676,0.351549 -0.513666,0.739266 -0.694529,1.148767 -0.180874,0.409501 -0.308778,0.840638 -0.37776,1.278475 -0.06898,0.437836 -0.07866,0.882742 -0.02268,1.319299 0.05598,0.436557 0.177523,0.865062 0.371548,1.270723 0.194026,0.405662 0.460488,0.788115 0.80564,1.133265 0.197937,0.197935 0.405312,0.3623 0.619595,0.492993 0.214293,0.130693 0.435433,0.227655 0.660942,0.292488 0.22551,0.06483 0.455182,0.09731 0.686788,0.09767 0.231607,3.56e-4 0.465055,-0.03131 0.69763,-0.09405 0.232574,-0.06274 0.464566,-0.156672 0.692978,-0.28112 0.228423,-0.124447 0.453184,-0.279279 0.672315,-0.464054 0.438263,-0.369551 0.852814,-0.85833 1.223177,-1.460893 0.305146,-0.496453 0.542965,-0.976982 0.713652,-1.441772 0.170688,-0.46479 0.274266,-0.914127 0.310578,-1.348238 0.03631,-0.434112 0.0052,-0.852871 -0.0925,-1.257288 -0.09801,-0.404416 -0.262862,-0.794249 -0.495051,-1.169954 -0.172259,-0.278717 -0.320681,-0.499376 -0.465097,-0.673344 -0.144406,-0.173968 -0.284847,-0.301176 -0.440792,-0.393775 -0.155954,-0.0926 -0.327485,-0.150392 -0.534339,-0.185001 -0.206854,-0.03461 -0.449073,-0.04599 -0.746208,-0.04599 z"
       style="display:inline;fill:#ffffff;stroke:none;stroke-width:1.04046"
       id="path12984" /><circle
       style="fill:#ffffff;fill-opacity:1;stroke:#000080;stroke-width:3;stroke-linecap:round;stroke-linejoin:round;stroke-dasharray:none;stroke-opacity:1;paint-order:markers fill stroke"
       id="path33"
       cx="20.960175"
       cy="151.92934"
       r="6.0767264" /><circle
       style="fill:#ffffff;fill-opacity:1;stroke:#000080;stroke-width:3;stroke-linecap:round;stroke-linejoin:round;stroke-dasharray:none;stroke-opacity:1;paint-order:markers fill stroke"
       id="circle33"
       cx="20.960175"
       cy="183.53793"
       r="6.0767264" /><circle
       style="fill:#ffffff;fill-opacity:1;stroke:#000080;stroke-width:3;stroke-linecap:round;stroke-linejoin:round;stroke-dasharray:none;stroke-opacity:1;paint-order:markers fill stroke"
       id="circle34"
       cx="48.018681"
       cy="214.16776"
       r="6.0767264" /><circle
       style="fill:#ffffff;fill-opacity:1;stroke:#000080;stroke-width:3;stroke-linecap:round;stroke-linejoin:round;stroke-dasharray:none;stroke-opacity:1;paint-order:markers fill stroke"
       id="circle35"
       cx="64.256584"
       cy="233.0154"
       r="6.0767264" /></g></svg>
